<svg width="2500" height="2389" viewBox="0 0 2500 2389" fill="none" xmlns="http://www.w3.org/2000/svg">
<g clip-path="url(#clip0_1788_1417)">
<path d="M0 277.512C0 197.072 28.154 130.711 84.4595 78.4286C140.765 26.1434 213.965 0.00195312 304.054 0.00195312C392.536 0.00195312 464.124 25.7404 518.822 77.222C575.128 130.311 603.282 199.486 603.282 284.751C603.282 361.971 575.934 426.32 521.236 477.801C464.93 530.89 390.927 557.434 299.228 557.434H296.815C208.333 557.434 136.745 530.89 82.0463 477.801C27.348 424.712 0 357.948 0 277.512ZM31.3707 2389V777.029H567.085V2389H31.3707ZM863.9 2389H1399.61V1488.9C1399.61 1432.59 1406.05 1389.16 1418.92 1358.59C1441.44 1303.89 1475.63 1257.64 1521.48 1219.84C1567.33 1182.03 1624.84 1163.13 1694.02 1163.13C1874.2 1163.13 1964.29 1284.59 1964.29 1527.51V2389H2500V1464.77C2500 1226.67 2443.69 1046.09 2331.08 923.023C2218.47 799.954 2069.66 738.419 1884.65 738.419C1677.12 738.419 1515.44 827.705 1399.61 1006.28V1011.1H1397.2L1399.61 1006.28V777.029H863.9C867.116 828.508 868.726 988.578 868.726 1257.24C868.726 1525.9 867.116 1903.15 863.9 2389Z" fill="white"/>
</g>
<defs>
<clipPath id="clip0_1788_1417">
<rect width="2500" height="2389" fill="white"/>
</clipPath>
</defs>
</svg>
