<svg viewBox="0 0 146 27" fill="none" xmlns="http://www.w3.org/2000/svg">
<path d="M20.8376 16.4786C19.8235 18.1914 17.6909 19.6651 15.1911 20.5776C15.1302 21.1605 15.101 22.115 15.2991 23.3841C15.2991 23.3841 12.38 23.4466 10.7909 21.524C9.70227 21.5987 8.62217 21.5509 7.60106 21.3587C5.72551 22.1038 3.69142 21.8722 1.39214 19.8272C1.39214 19.8272 2.2134 19.724 3.36508 19.2381C2.89924 18.766 2.50583 18.2276 2.19764 17.6404C-1.32883 10.9597 2.74875 6.88701 2.79363 6.84276C-0.658215 3.35843 3.53645 0 3.53645 0C3.53645 0 3.49437 1.48554 4.70783 2.45861C5.92129 3.43168 5.5235 4.84359 5.5235 4.84359C5.5235 4.84359 6.99821 4.07984 8.4105 4.79146C9.82279 5.50307 11.2112 5.26477 11.2112 5.26477C11.2112 5.26477 10.8267 7.04609 9.36779 8.05057C7.43159 9.38339 5.03188 8.0245 5.03188 8.0245C3.04077 12.3546 7.04054 12.5134 11.7994 11.0624C12.7901 10.7603 13.8134 10.3884 14.8226 9.97064C18.1915 8.57475 20.6393 9.30646 21.5568 11.1179C22.2357 12.4563 22.0778 14.3843 20.8376 16.4786Z" fill="#056AFF"/>
<path d="M33.6053 21.1826C32.6854 21.1826 31.8602 21.0203 31.1297 20.6956C30.3992 20.3574 29.8175 19.9043 29.3846 19.3361C28.9652 18.7679 28.7353 18.1389 28.6947 17.449H31.5558C31.6099 17.8819 31.8196 18.2403 32.1848 18.5244C32.5636 18.8085 33.0303 18.9506 33.585 18.9506C34.1261 18.9506 34.5454 18.8423 34.843 18.6259C35.1542 18.4094 35.3097 18.1321 35.3097 17.7939C35.3097 17.4287 35.1204 17.1581 34.7416 16.9823C34.3763 16.7929 33.7879 16.59 32.9762 16.3735C32.1375 16.1706 31.4476 15.9609 30.9065 15.7445C30.3789 15.528 29.9189 15.1966 29.5266 14.7502C29.1479 14.3038 28.9585 13.7018 28.9585 12.9442C28.9585 12.322 29.1343 11.7538 29.4861 11.2398C29.8513 10.7257 30.3654 10.3199 31.0282 10.0223C31.7046 9.72465 32.496 9.57585 33.4023 9.57585C34.7416 9.57585 35.8103 9.91404 36.6084 10.5904C37.4065 11.2533 37.8462 12.1529 37.9274 13.2892H35.2083C35.1677 12.8428 34.9783 12.4911 34.6401 12.234C34.3155 11.9635 33.8758 11.8282 33.3212 11.8282C32.8071 11.8282 32.408 11.9229 32.124 12.1123C31.8534 12.3017 31.7181 12.5655 31.7181 12.9037C31.7181 13.2824 31.9075 13.5733 32.2863 13.7762C32.6651 13.9656 33.2535 14.1617 34.0517 14.3647C34.8633 14.5676 35.533 14.7773 36.0605 14.9937C36.5881 15.2101 37.0413 15.5483 37.4201 16.0083C37.8124 16.4547 38.0153 17.0499 38.0288 17.7939C38.0288 18.4433 37.8462 19.025 37.4809 19.539C37.1292 20.0531 36.6152 20.4589 35.9388 20.7565C35.2759 21.0406 34.4981 21.1826 33.6053 21.1826ZM39.6303 15.3792C39.6303 14.2159 39.867 13.2013 40.3405 12.3355C40.8139 11.4562 41.47 10.7798 42.3087 10.3063C43.1475 9.81935 44.1079 9.57585 45.1902 9.57585C46.5835 9.57585 47.7334 9.92757 48.6397 10.631C49.5596 11.3209 50.1751 12.2949 50.4863 13.553H47.4222C47.2599 13.066 46.9826 12.6872 46.5903 12.4167C46.2115 12.1326 45.738 11.9905 45.1699 11.9905C44.3582 11.9905 43.7156 12.2882 43.2422 12.8834C42.7687 13.4651 42.532 14.297 42.532 15.3792C42.532 16.4479 42.7687 17.2799 43.2422 17.8751C43.7156 18.4568 44.3582 18.7476 45.1699 18.7476C46.3197 18.7476 47.0705 18.2336 47.4222 17.2055H50.4863C50.1751 18.423 49.5596 19.3902 48.6397 20.1072C47.7198 20.8241 46.57 21.1826 45.1902 21.1826C44.1079 21.1826 43.1475 20.9459 42.3087 20.4724C41.47 19.9854 40.8139 19.309 40.3405 18.4433C39.867 17.564 39.6303 16.5426 39.6303 15.3792ZM51.8369 15.3387C51.8369 14.2023 52.0601 13.1945 52.5065 12.3152C52.9665 11.4359 53.582 10.7595 54.3531 10.2861C55.1377 9.81258 56.0102 9.57585 56.9707 9.57585C57.8094 9.57585 58.5399 9.74494 59.1622 10.0831C59.798 10.4213 60.3053 10.8475 60.684 11.3615V9.75847H63.5451V21H60.684V19.3564C60.3188 19.884 59.8115 20.3236 59.1622 20.6753C58.5264 21.0135 57.7891 21.1826 56.9504 21.1826C56.0034 21.1826 55.1377 20.9391 54.3531 20.4521C53.582 19.9651 52.9665 19.282 52.5065 18.4027C52.0601 17.5099 51.8369 16.4885 51.8369 15.3387ZM60.684 15.3792C60.684 14.6893 60.5488 14.1009 60.2782 13.6139C60.0076 13.1133 59.6424 12.7346 59.1825 12.4775C58.7225 12.207 58.2288 12.0717 57.7012 12.0717C57.1736 12.0717 56.6866 12.2002 56.2402 12.4572C55.7938 12.7143 55.4285 13.0931 55.1444 13.5936C54.8739 14.0806 54.7386 14.6623 54.7386 15.3387C54.7386 16.015 54.8739 16.6103 55.1444 17.1243C55.4285 17.6248 55.7938 18.0104 56.2402 18.2809C56.7001 18.5515 57.1871 18.6868 57.7012 18.6868C58.2288 18.6868 58.7225 18.5582 59.1825 18.3012C59.6424 18.0307 60.0076 17.6519 60.2782 17.1649C60.5488 16.6644 60.684 16.0691 60.684 15.3792ZM69.1605 5.98424V21H66.3197V5.98424H69.1605ZM82.4174 15.1357C82.4174 15.5416 82.3904 15.9068 82.3362 16.2315H74.1182C74.1858 17.0431 74.4699 17.6789 74.9704 18.1389C75.4709 18.5988 76.0864 18.8288 76.8169 18.8288C77.8721 18.8288 78.6229 18.3756 79.0693 17.4693H82.1333C81.8087 18.5515 81.1864 19.4443 80.2665 20.1478C79.3466 20.8377 78.2171 21.1826 76.8778 21.1826C75.7956 21.1826 74.8216 20.9459 73.9558 20.4724C73.1036 19.9854 72.434 19.3023 71.947 18.423C71.4735 17.5437 71.2368 16.5291 71.2368 15.3792C71.2368 14.2159 71.4735 13.1945 71.947 12.3152C72.4204 11.4359 73.0833 10.7595 73.9355 10.2861C74.7878 9.81258 75.7685 9.57585 76.8778 9.57585C77.9465 9.57585 78.9002 9.80582 79.7389 10.2658C80.5912 10.7257 81.2473 11.3818 81.7072 12.234C82.1807 13.0728 82.4174 14.04 82.4174 15.1357ZM79.4751 14.3241C79.4616 13.5936 79.1978 13.0119 78.6838 12.579C78.1697 12.1326 77.5407 11.9094 76.7966 11.9094C76.0932 11.9094 75.498 12.1258 75.011 12.5587C74.5375 12.9781 74.2467 13.5665 74.1385 14.3241H79.4751ZM100.075 9.75847L96.7876 21H93.7236L91.6742 13.1472L89.6247 21H86.5404L83.2329 9.75847H86.1143L88.1029 18.3215L90.2538 9.75847H93.2569L95.3672 18.3012L97.3558 9.75847H100.075ZM107.943 9.59614C108.795 9.59614 109.553 9.78553 110.216 10.1643C110.878 10.5295 111.393 11.0774 111.758 11.8079C112.137 12.5249 112.326 13.3907 112.326 14.4052V21H109.485V14.7908C109.485 13.898 109.262 13.2148 108.815 12.7413C108.369 12.2543 107.76 12.0108 106.989 12.0108C106.205 12.0108 105.582 12.2543 105.122 12.7413C104.676 13.2148 104.453 13.898 104.453 14.7908V21H101.612V5.98424H104.453V11.1586C104.818 10.6716 105.305 10.2928 105.914 10.0223C106.523 9.73818 107.199 9.59614 107.943 9.59614ZM114.297 15.3387C114.297 14.2023 114.52 13.1945 114.967 12.3152C115.426 11.4359 116.042 10.7595 116.813 10.2861C117.598 9.81258 118.47 9.57585 119.431 9.57585C120.269 9.57585 121 9.74494 121.622 10.0831C122.258 10.4213 122.765 10.8475 123.144 11.3615V9.75847H126.005V21H123.144V19.3564C122.779 19.884 122.271 20.3236 121.622 20.6753C120.986 21.0135 120.249 21.1826 119.41 21.1826C118.463 21.1826 117.598 20.9391 116.813 20.4521C116.042 19.9651 115.426 19.282 114.967 18.4027C114.52 17.5099 114.297 16.4885 114.297 15.3387ZM123.144 15.3792C123.144 14.6893 123.009 14.1009 122.738 13.6139C122.468 13.1133 122.102 12.7346 121.642 12.4775C121.183 12.207 120.689 12.0717 120.161 12.0717C119.634 12.0717 119.147 12.2002 118.7 12.4572C118.254 12.7143 117.889 13.0931 117.604 13.5936C117.334 14.0806 117.199 14.6623 117.199 15.3387C117.199 16.015 117.334 16.6103 117.604 17.1243C117.889 17.6248 118.254 18.0104 118.7 18.2809C119.16 18.5515 119.647 18.6868 120.161 18.6868C120.689 18.6868 121.183 18.5582 121.642 18.3012C122.102 18.0307 122.468 17.6519 122.738 17.1649C123.009 16.6644 123.144 16.0691 123.144 15.3792ZM131.621 5.98424V21H128.78V5.98424H131.621ZM144.877 15.1357C144.877 15.5416 144.85 15.9068 144.796 16.2315H136.578C136.646 17.0431 136.93 17.6789 137.43 18.1389C137.931 18.5988 138.546 18.8288 139.277 18.8288C140.332 18.8288 141.083 18.3756 141.529 17.4693H144.593C144.269 18.5515 143.646 19.4443 142.726 20.1478C141.807 20.8377 140.677 21.1826 139.338 21.1826C138.256 21.1826 137.282 20.9459 136.416 20.4724C135.564 19.9854 134.894 19.3023 134.407 18.423C133.933 17.5437 133.697 16.5291 133.697 15.3792C133.697 14.2159 133.933 13.1945 134.407 12.3152C134.88 11.4359 135.543 10.7595 136.396 10.2861C137.248 9.81258 138.229 9.57585 139.338 9.57585C140.406 9.57585 141.36 9.80582 142.199 10.2658C143.051 10.7257 143.707 11.3818 144.167 12.234C144.641 13.0728 144.877 14.04 144.877 15.1357ZM141.935 14.3241C141.922 13.5936 141.658 13.0119 141.144 12.579C140.63 12.1326 140.001 11.9094 139.257 11.9094C138.553 11.9094 137.958 12.1258 137.471 12.5587C136.998 12.9781 136.707 13.5665 136.598 14.3241H141.935Z" fill="black"/>
</svg>
