<svg width="16" height="16" viewBox="0 0 16 16" fill="none" xmlns="http://www.w3.org/2000/svg">
<path d="M13.0384 10.346C12.5199 11.2218 11.4294 11.9753 10.1512 12.4419C10.12 12.74 10.1051 13.2281 10.2064 13.877C10.2064 13.877 8.71376 13.9089 7.90119 12.9258C7.34454 12.9641 6.79225 12.9396 6.27012 12.8413C5.31109 13.2224 4.27099 13.1039 3.09529 12.0582C3.09529 12.0582 3.51523 12.0054 4.10412 11.757C3.86592 11.5156 3.66476 11.2403 3.50717 10.94C1.70397 7.524 3.78897 5.44148 3.81192 5.41885C2.04688 3.6372 4.19175 1.91992 4.19175 1.91992C4.19175 1.91992 4.17023 2.67953 4.79072 3.17709C5.4112 3.67465 5.20779 4.39661 5.20779 4.39661C5.20779 4.39661 5.96186 4.00608 6.68401 4.36995C7.40616 4.73383 8.1161 4.61197 8.1161 4.61197C8.1161 4.61197 7.91952 5.52283 7.17351 6.03645C6.18347 6.71796 4.95642 6.02312 4.95642 6.02312C3.93829 8.23724 5.98351 8.31846 8.41688 7.57647C8.92347 7.42204 9.4467 7.23185 9.96272 7.01824C11.6854 6.30448 12.937 6.67862 13.4061 7.60489C13.7533 8.28926 13.6725 9.27509 13.0384 10.346Z" fill="#056AFF"/>
</svg>
