<svg width="130" height="29" viewBox="0 0 130 29" fill="none" xmlns="http://www.w3.org/2000/svg">
<path d="M46.9954 7.43848V20.1318H44.9688V7.43848H46.9954Z" fill="#002840"/>
<path d="M83.6625 14.9064V20.1597H81.6358V15.2264C81.6891 14.1064 80.7825 13.1464 79.6625 13.1197C78.5425 13.0664 77.5825 13.973 77.5558 15.093C77.5558 15.1197 77.5558 15.1464 77.5558 15.1997V20.1597H75.5025V15.2264C75.5825 14.133 74.7558 13.1997 73.6625 13.1197C73.5825 13.1197 73.5291 13.1197 73.4491 13.1197C72.3291 13.1197 71.3958 14.053 71.4225 15.173C71.4225 15.1997 71.4225 15.2264 71.4225 15.253V20.133H69.3691V11.413H71.3958V12.4264C72.0358 11.6797 72.9958 11.2264 73.9825 11.253C75.1558 11.2264 76.2491 11.7864 76.8891 12.7464C77.6091 11.7864 78.7558 11.2264 79.9558 11.253C81.9025 11.173 83.5558 12.693 83.6358 14.6397C83.6625 14.7197 83.6625 14.7997 83.6625 14.9064Z" fill="#002840"/>
<path d="M90.3558 11.2529V13.4129C88.3825 13.2796 87.3958 14.2929 87.3958 15.6262V20.1596H85.3691V11.4129H87.3958V12.6396C88.1158 11.7596 89.2091 11.2262 90.3558 11.2529Z" fill="#002840"/>
<path d="M99.5816 16.5065H92.7016C92.9683 17.7065 94.0616 18.5599 95.315 18.5065C96.3283 18.5332 97.2883 17.9999 97.7683 17.0932L99.475 17.8132C98.7283 19.3599 97.155 20.3465 95.4483 20.3199C92.9683 20.4265 90.8616 18.5065 90.755 16.0265C90.755 15.9465 90.755 15.8665 90.755 15.7865C90.7016 13.3332 92.6483 11.3065 95.1016 11.2532C95.155 11.2532 95.235 11.2532 95.2883 11.2532C97.715 11.2265 99.6883 13.1465 99.715 15.5732C99.6616 15.8665 99.635 16.1865 99.5816 16.5065ZM92.7016 14.9599H97.7416C97.4483 13.8399 96.435 13.0399 95.2883 13.0399C94.0883 13.0132 93.0216 13.8132 92.7016 14.9599Z" fill="#002840"/>
<path d="M109.875 11.4123V20.1323H107.848V18.9589C107.128 19.8389 106.035 20.3189 104.915 20.2923C102.462 20.2923 100.648 18.4256 100.648 15.7589C100.648 13.0923 102.462 11.2256 104.915 11.2256C106.035 11.1989 107.128 11.7056 107.848 12.5589V11.3856L109.875 11.4123ZM107.848 15.7856C107.902 14.3456 106.782 13.1456 105.368 13.0923C105.342 13.0923 105.315 13.0923 105.288 13.0923C103.795 13.1723 102.675 14.4523 102.755 15.9456C102.835 17.3056 103.928 18.3989 105.288 18.4789C106.728 18.4789 107.875 17.3056 107.875 15.8656C107.848 15.8389 107.848 15.8123 107.848 15.7856Z" fill="#002840"/>
<path d="M111.316 15.7861C111.262 13.3328 113.209 11.3061 115.662 11.2528C115.716 11.2528 115.769 11.2528 115.822 11.2528C117.689 11.1995 119.369 12.3195 120.089 14.0528L118.196 14.6928C117.796 13.7595 116.889 13.1461 115.876 13.1461C114.489 13.1461 113.342 14.2395 113.342 15.6261C113.342 15.6795 113.342 15.7328 113.342 15.7861C113.289 17.1995 114.356 18.3728 115.769 18.4528C116.862 18.5061 117.876 17.8395 118.276 16.7995L120.116 17.5195C119.422 19.2528 117.716 20.3728 115.849 20.3461C113.396 20.3995 111.369 18.4795 111.316 16.0261C111.316 15.9195 111.316 15.8395 111.316 15.7861Z" fill="#002840"/>
<path d="M129.823 15.0918V20.1585H127.796V15.4118C127.876 14.2118 126.969 13.1985 125.769 13.1185C125.689 13.1185 125.636 13.1185 125.556 13.1185C124.329 13.0918 123.316 14.0785 123.289 15.3051C123.289 15.3585 123.289 15.4118 123.289 15.4385V20.1318H121.263V7.43848H123.289V12.5318C124.623 10.9851 126.969 10.7985 128.516 12.1051C129.369 12.8518 129.849 13.9451 129.823 15.0918Z" fill="#002840"/>
<path d="M36.222 12.0251V7.43848H34.1953V20.1318H36.222V19.5185C36.9686 19.9985 37.822 20.2385 38.702 20.2118C39.2886 20.2118 39.8753 20.1051 40.4086 19.8918C42.702 18.8518 43.7153 16.1585 42.6753 13.8918C42.222 12.8785 41.422 12.0785 40.4086 11.6251C39.8753 11.4118 39.2886 11.3051 38.702 11.3051C37.8486 11.3051 36.9686 11.5451 36.222 12.0251ZM38.4886 18.4251C37.5553 18.4251 36.6753 17.9185 36.222 17.0918C35.7953 16.2651 35.7953 15.2785 36.222 14.4785C36.6486 13.6518 37.5286 13.1185 38.4886 13.1451C39.9553 13.1985 41.102 14.3985 41.0753 15.8651C41.022 17.2518 39.902 18.3985 38.4886 18.4251Z" fill="#002840"/>
<path d="M48.4981 15.7803C48.4448 13.247 50.4981 11.1403 53.0314 11.087C55.5648 11.0336 57.6714 13.087 57.7248 15.6203C57.7781 18.1536 55.7248 20.2603 53.1914 20.3136C53.1648 20.3136 53.1381 20.3136 53.1114 20.3136C50.6314 20.3936 48.5781 18.447 48.4981 15.9936C48.4981 15.9136 48.4981 15.8336 48.4981 15.7803ZM53.1114 18.4203C54.5781 18.4736 55.8048 17.3003 55.8581 15.8336C55.9114 14.367 54.7381 13.1403 53.2714 13.087C51.8048 13.0336 50.5781 14.207 50.5248 15.6736C50.5248 15.7003 50.5248 15.727 50.5248 15.7536C50.4714 17.167 51.6181 18.367 53.0314 18.4203C53.0581 18.4203 53.0848 18.4203 53.1114 18.4203Z" fill="#002840"/>
<path d="M58.7374 15.7803C58.684 13.2203 60.7107 11.1403 63.2707 11.087C65.8307 11.0336 67.9107 13.0603 67.964 15.6203C68.0174 18.1803 65.9907 20.2603 63.4307 20.3136C63.404 20.3136 63.3774 20.3136 63.3507 20.3136C60.8707 20.3936 58.8174 18.447 58.7374 15.9936C58.7374 15.9136 58.7374 15.8336 58.7374 15.7803ZM63.3507 18.4203C64.8174 18.4736 66.044 17.3003 66.0974 15.8336C66.1507 14.367 64.9774 13.1403 63.5107 13.087C62.044 13.0336 60.8174 14.207 60.764 15.6736C60.764 15.7003 60.764 15.727 60.764 15.7536C60.7107 17.167 61.8574 18.367 63.2707 18.4203C63.2974 18.4203 63.324 18.4203 63.3507 18.4203Z" fill="#002840"/>
<path d="M14.2034 28.7207C21.9501 28.7207 28.2301 22.4527 28.2301 14.7207C28.2301 6.98872 21.9501 0.720703 14.2034 0.720703C6.45671 0.720703 0.176758 6.98872 0.176758 14.7207C0.176758 22.4527 6.45671 28.7207 14.2034 28.7207Z" fill="#FFD500"/>
<path d="M17.0689 11.8118L16.3755 13.5451C17.1222 14.0251 17.5755 14.8518 17.5489 15.7318C17.5222 17.1184 16.3489 18.1851 14.9889 18.1584C13.6022 18.1318 12.5355 16.9584 12.5622 15.5984C12.5889 14.2918 13.6289 13.2251 14.9355 13.1718L15.5755 11.3851C13.2289 11.0118 11.0155 12.6118 10.6422 14.9584C10.6155 15.1718 10.5889 15.4118 10.5889 15.6251V20.1318H12.5622V19.4384C13.3089 19.9184 14.1622 20.1584 15.0422 20.1318C17.4422 20.2118 19.4155 18.3184 19.4955 15.9184C19.4955 15.8651 19.4955 15.8118 19.4955 15.7318C19.5489 14.0784 18.5889 12.5318 17.0689 11.8118Z" fill="#002840"/>
<path d="M10.6162 11.5985C11.1762 11.0385 11.8429 10.5851 12.5895 10.2651V7.43848H10.6162V11.5985Z" fill="#002840"/>
</svg>
