<svg width="114" height="21" viewBox="0 0 114 21" fill="none" xmlns="http://www.w3.org/2000/svg">
<path d="M17.1287 8.12145C17.2065 7.17495 17.3427 6.23411 17.5367 5.30443C17.5925 5.08443 17.6297 4.8601 17.6479 4.63382C17.6473 4.35953 17.5382 4.09665 17.3444 3.9027C17.1507 3.70875 16.8881 3.59951 16.614 3.5989C16.4359 3.61213 16.2591 3.64008 16.0855 3.68244C15.1665 3.87081 14.2379 4.0087 13.3038 4.09548C12.4277 4.17901 11.5769 4.2231 10.754 4.2231C10.0586 4.2231 9.34228 4.19294 8.62834 4.13725C7.91441 4.08156 7.23753 3.99802 6.52124 3.88431C6.36361 3.85879 6.14107 3.81238 5.90231 3.76597C5.56599 3.68584 5.22436 3.63001 4.88005 3.5989C4.60707 3.59776 4.34467 3.7045 4.14986 3.89592C4.0536 3.9917 3.97721 4.10558 3.9251 4.23103C3.87298 4.35648 3.84617 4.491 3.84619 4.62686C3.84619 5.15825 4.03628 5.86598 4.14059 6.42985C4.17999 6.64102 4.21477 6.85682 4.2449 7.09813C4.3214 7.68757 4.37471 8.25838 4.40948 8.79438C4.44658 9.39307 4.46512 9.96082 4.46512 10.4976C4.46512 11.2053 4.4373 11.9201 4.37935 12.6371C4.31769 13.5266 4.19767 14.411 4.02005 15.2847C3.92792 15.6446 3.86742 16.0118 3.83924 16.3823C3.8383 16.5176 3.86402 16.6519 3.91493 16.7773C3.96584 16.9028 4.04095 17.0169 4.13596 17.1133C4.23224 17.2133 4.34788 17.2926 4.47581 17.3465C4.60373 17.4003 4.74128 17.4276 4.88005 17.4265C5.14992 17.4028 5.41739 17.3571 5.67978 17.2896C5.86986 17.2478 6.05762 17.2084 6.2987 17.1666C7.04203 17.0413 7.78072 16.9484 8.51478 16.8881C9.25884 16.8255 10.0076 16.7953 10.754 16.7953C11.5004 16.7953 12.219 16.8255 12.9538 16.8858C13.6887 16.9461 14.405 17.0366 15.1421 17.1573C15.2858 17.1805 15.4921 17.2246 15.717 17.271C16.0157 17.3409 16.3184 17.3928 16.6233 17.4265C16.8972 17.4265 17.1597 17.3178 17.3535 17.1242C17.5474 16.9306 17.6566 16.6679 17.6572 16.3939C17.6301 16.1326 17.5844 15.8736 17.5204 15.6189C17.4787 15.4239 17.4393 15.229 17.43 15.1733C17.2956 14.4076 17.1982 13.6349 17.1263 12.8529C17.0545 12.0709 17.0267 11.2958 17.0267 10.5115C17.0267 9.7272 17.0615 8.91276 17.131 8.12376M20.2024 8.38832C20.139 9.08444 20.1082 9.7922 20.1097 10.5115C20.1112 11.2309 20.1406 11.927 20.1978 12.5999C20.258 13.2961 20.3477 13.9798 20.4667 14.6512C20.4992 14.8438 20.5153 14.9181 20.5339 15.0086C20.6443 15.4653 20.7111 15.9314 20.7333 16.4008C20.7302 17.4924 20.2948 18.5383 19.5227 19.3091C18.7505 20.0799 17.7045 20.5127 16.614 20.5127C16.1015 20.4793 15.5927 20.4016 15.0934 20.2806C14.9219 20.2435 14.7642 20.211 14.6298 20.1901C14.0109 20.0881 13.3642 20.0091 12.6942 19.9581C12.0243 19.9071 11.4054 19.8792 10.7355 19.8792C10.0655 19.8792 9.39566 19.9071 8.74891 19.9604C8.10216 20.0138 7.41603 20.0973 6.78549 20.1924C6.68814 20.2087 6.50269 20.2505 6.32188 20.2923C5.84701 20.4135 5.36054 20.4835 4.87077 20.5011C4.33112 20.5013 3.79674 20.3948 3.2983 20.1878C2.79986 19.9807 2.34719 19.6771 1.96625 19.2944C1.19466 18.5263 0.758705 17.4833 0.753906 16.3939C0.753906 15.6398 0.985712 15.0016 1.08771 14.2869C1.18043 13.6975 1.25461 13.0687 1.31951 12.4073C1.36587 11.7924 1.39138 11.1589 1.39138 10.5092C1.39419 9.50082 1.33302 8.49326 1.20825 7.49263C1.08539 6.525 0.772451 5.65482 0.772451 4.63382C0.771888 4.09286 0.878084 3.55713 1.08494 3.05737C1.2918 2.55761 1.59524 2.10368 1.97784 1.72165C2.35854 1.33917 2.8108 1.03553 3.30878 0.828092C3.80675 0.620652 4.34068 0.513479 4.88005 0.512695C5.59169 0.512695 6.29638 0.744741 6.99644 0.846841C7.58059 0.937338 8.20416 1.01159 8.86247 1.06264C9.47134 1.11215 10.0995 1.1369 10.747 1.1369C11.5445 1.1369 12.3002 1.10209 13.0072 1.0348C13.6253 0.97756 14.2504 0.892477 14.8825 0.779548C15.4512 0.642147 16.0304 0.552881 16.614 0.512695C17.7053 0.514536 18.7514 0.949316 19.5231 1.72178C20.2948 2.49424 20.7291 3.5414 20.7309 4.63382C20.718 5.07546 20.6565 5.51434 20.5478 5.94256C20.3818 6.74911 20.2657 7.56513 20.2001 8.38601L20.2024 8.38832Z" fill="#1FC2C2"/>
<path d="M90.8477 6.73859C90.3014 6.34041 89.6608 6.0936 88.9889 6.02311C88.317 5.95261 87.6389 6.06095 87.0227 6.33715C86.2539 6.69103 85.6083 7.26625 85.1683 7.98931C85.0133 8.23931 84.8833 8.5035 84.7789 8.77825C84.4608 9.62613 84.3802 10.5449 84.5471 11.4352C84.5964 11.7283 84.6739 12.0158 84.7789 12.2938C84.8833 12.5686 85.0133 12.8328 85.1683 13.0827C85.5202 13.6793 86.0196 14.1752 86.6183 14.5226C87.217 14.8701 87.8952 15.0574 88.5871 15.0667C88.8546 15.0674 89.1208 15.0394 89.382 14.9832C90.0683 14.8204 90.7027 14.4894 91.2289 14.0199C91.7545 13.5504 92.1558 12.9571 92.3958 12.2938C92.4995 12.0163 92.5777 11.7296 92.6277 11.4375C92.6821 11.1398 92.7096 10.8376 92.7089 10.5349C92.7096 10.2336 92.6821 9.93306 92.6277 9.63681C92.5777 9.34469 92.5002 9.058 92.3958 8.78056C92.2908 8.50625 92.1602 8.24281 92.0039 7.99394C91.7027 7.50769 91.3089 7.08519 90.8452 6.75019M79.2039 0.515127C79.3758 0.514064 79.5464 0.547376 79.7058 0.613116C79.8652 0.678856 80.0096 0.775705 80.1308 0.898002C80.2533 1.01947 80.3508 1.16404 80.417 1.32336C80.4833 1.48267 80.5177 1.65357 80.5177 1.82618C80.5177 1.9988 80.4833 2.1697 80.417 2.32901C80.3508 2.48833 80.2533 2.63289 80.1308 2.75436C80.0089 2.87626 79.8645 2.97294 79.7058 3.03891C79.5464 3.10488 79.3758 3.13883 79.2039 3.13883C79.0314 3.13883 78.8608 3.10488 78.702 3.03891C78.5427 2.97294 78.3983 2.87626 78.2764 2.75436C78.1546 2.63248 78.0583 2.48777 77.9921 2.32851C77.9264 2.16926 77.8927 1.99856 77.8927 1.82618C77.8927 1.65381 77.9264 1.48311 77.9921 1.32386C78.0583 1.1646 78.1546 1.01989 78.2764 0.898002C78.3983 0.776019 78.5427 0.679374 78.702 0.613656C78.8608 0.547939 79.0314 0.51445 79.2039 0.515127ZM80.2839 16.1086C80.2833 16.3228 80.2189 16.5319 80.0995 16.7098C79.9808 16.8878 79.8114 17.0265 79.6139 17.1087C79.4839 17.1635 79.3446 17.1919 79.2039 17.1923C79.0627 17.1919 78.9233 17.1635 78.7933 17.1087C78.5971 17.0257 78.4296 16.8866 78.3114 16.7087C78.1933 16.5308 78.1308 16.3221 78.1308 16.1086V4.94488C78.1314 4.73061 78.1952 4.52132 78.3146 4.34336C78.4333 4.1654 78.6027 4.02671 78.8002 3.94476C78.9302 3.88999 79.0695 3.86159 79.2108 3.86123C79.3514 3.86159 79.4914 3.88999 79.6208 3.94476C79.817 4.02803 79.9846 4.16723 80.1027 4.34506C80.2208 4.52288 80.2833 4.73146 80.2839 4.94488V16.1086ZM75.8589 9.65075V15.8023C75.8733 16.0311 75.8508 16.2607 75.7914 16.4822C75.7408 16.6316 75.6539 16.7663 75.5389 16.8743C75.4383 16.9739 75.3196 17.0527 75.1889 17.1064C75.0589 17.1614 74.9189 17.1898 74.7777 17.1898C74.6358 17.1898 74.4964 17.1614 74.3658 17.1064C74.2352 17.0533 74.1158 16.9744 74.0158 16.8743C73.6845 16.5425 73.7008 16.2176 73.7008 15.8116V9.36769C73.7027 9.07413 73.6708 8.78138 73.6058 8.49519C73.6058 8.46038 73.5896 8.42556 73.5802 8.39306C73.3846 7.65919 72.9258 7.02313 72.2914 6.60632C71.7589 6.27717 71.1483 6.09688 70.5227 6.08422H70.3996C69.1227 6.08422 67.9658 6.71074 67.4258 7.90113C67.3089 8.15706 67.2258 8.42688 67.1777 8.704C67.1295 9.01094 67.1108 9.32175 67.1221 9.63219V16.0831C67.1239 16.2263 67.0995 16.3687 67.0502 16.5031C66.9964 16.646 66.9121 16.7752 66.8021 16.8813C66.7008 16.9809 66.5814 17.0597 66.4495 17.1133C66.3189 17.1684 66.1789 17.1968 66.037 17.1969C65.8945 17.1965 65.7539 17.1681 65.622 17.1133C65.4908 17.0603 65.3708 16.9814 65.2702 16.8813C65.1545 16.7693 65.0677 16.6318 65.0152 16.4799C64.9714 16.3434 64.9508 16.2007 64.9546 16.0576V1.59646C64.9552 1.45464 64.9839 1.31433 65.0383 1.18342C65.0914 1.05225 65.1702 0.933096 65.2702 0.833029C65.3702 0.733464 65.4889 0.65462 65.6202 0.600984C65.7508 0.546703 65.8908 0.519092 66.0327 0.519768C66.1739 0.519339 66.3146 0.546941 66.4452 0.600984C66.6446 0.680297 66.8158 0.818346 66.9352 0.996904C67.0552 1.17546 67.1177 1.38613 67.1152 1.6011V4.94488L67.3027 4.81957C67.5989 4.62426 67.9146 4.45945 68.2439 4.32763C68.5764 4.18955 68.9221 4.08538 69.2758 4.0167C69.3633 4.00045 69.4495 3.98653 69.5377 3.97493C69.6208 3.96333 69.7139 3.95404 69.8133 3.94476L70.0939 3.92388H70.5414C71.4064 3.9409 72.2577 4.15181 73.0308 4.54111C73.7233 4.90198 74.3258 5.41438 74.7933 6.04026C75.2608 6.66615 75.5814 7.38944 75.7314 8.15638C75.8227 8.64913 75.8652 9.14969 75.8589 9.65075ZM50.483 5.28134V11.7438C50.4815 12.0264 50.4614 12.3086 50.4227 12.5884C50.4089 12.6789 50.3949 12.7718 50.3787 12.8623C50.3625 12.9551 50.3439 13.0433 50.3254 13.1222C50.3046 13.2103 50.2791 13.3008 50.2559 13.389C50.2304 13.4772 50.2026 13.5654 50.1724 13.6513C49.9432 14.3157 49.5829 14.9272 49.1131 15.4496C48.8322 15.764 48.5092 16.0381 48.1534 16.2641C47.7817 16.5225 47.375 16.7264 46.9457 16.8697C46.8483 16.9045 46.7626 16.9323 46.6837 16.9533L46.4218 17.0228C46.3361 17.0438 46.2433 17.0623 46.1529 17.0809C45.5017 17.1986 44.8361 17.2135 44.1802 17.1249C44.0921 17.1249 44.0017 17.0994 43.916 17.0832L43.6494 17.0275C43.5567 17.0058 43.4686 16.9826 43.3851 16.9579C43.3086 16.937 43.2206 16.9068 43.1255 16.8743C43.0514 16.8488 42.9655 16.8163 42.8752 16.7792C41.8144 16.3615 40.9241 15.6001 40.3462 14.6165C40.2952 14.5307 40.2511 14.4518 40.2164 14.3845C40.1677 14.2917 40.1306 14.2174 40.1027 14.1524C40.0726 14.0874 40.0402 14.0132 40.0054 13.9204L39.9938 13.8949C39.9567 13.8044 39.9243 13.7208 39.8988 13.6443C39.8686 13.5584 39.8408 13.4703 39.8153 13.3844C39.7898 13.2985 39.7643 13.1988 39.7458 13.1222L39.718 12.9806L39.6925 12.8576C39.623 12.4896 39.5881 12.116 39.5882 11.7415V5.07714C39.5849 4.93434 39.6037 4.7919 39.6438 4.65482C39.69 4.50239 39.7719 4.36319 39.8825 4.24874C39.9822 4.14834 40.1013 4.06938 40.2325 4.0167C40.364 3.96191 40.5051 3.93353 40.6475 3.93316C40.8626 3.92788 41.0743 3.98773 41.2549 4.10487C41.3878 4.20393 41.498 4.33038 41.5779 4.47568C41.6579 4.62099 41.7058 4.78178 41.7184 4.9472C41.7324 5.06733 41.7386 5.18825 41.737 5.30919V11.8483C41.7451 12.1053 41.7777 12.3609 41.8344 12.6117C41.8459 12.6674 41.8622 12.7207 41.8761 12.7671C41.89 12.8182 41.9062 12.8716 41.9247 12.9203C41.941 12.9713 41.9619 13.0247 41.9827 13.0758C41.9989 13.1175 42.0221 13.1709 42.0499 13.2312C42.0777 13.2916 42.0986 13.3333 42.1149 13.3658L42.1797 13.4818L42.2423 13.5839L42.2725 13.628C42.3026 13.6698 42.3304 13.7139 42.3606 13.751L42.4092 13.816L42.4533 13.8717C42.7141 14.1884 43.0356 14.4496 43.3991 14.6398C44.0659 14.9739 44.8199 15.0931 45.5572 14.9808C45.7265 14.959 45.8939 14.9241 46.0579 14.8764C46.1089 14.8625 46.1622 14.8463 46.2132 14.8277L46.3639 14.772L46.5099 14.7094L46.6536 14.6374L46.7904 14.5608C47.1979 14.3199 47.5441 13.9877 47.8019 13.5903C48.0597 13.193 48.222 12.7413 48.2762 12.2706C48.2855 12.2087 48.2925 12.153 48.2971 12.1035L48.3087 11.9573C48.3087 11.8784 48.3087 11.8134 48.3087 11.7253V5.03769C48.3059 4.88429 48.3342 4.73191 48.3921 4.58985C48.4452 4.45775 48.5242 4.33769 48.6245 4.23683C48.7249 4.13597 48.8446 4.05637 48.9763 4.00277C49.107 3.94799 49.2472 3.9196 49.3889 3.91923C49.4893 3.91895 49.5892 3.93301 49.6856 3.961C49.7828 3.98898 49.8757 4.03038 49.9615 4.08399C50.0464 4.13916 50.1243 4.20463 50.1932 4.27891C50.3528 4.45132 50.4486 4.67326 50.4645 4.90775C50.4831 5.03073 50.4807 5.15836 50.483 5.28134ZM107.473 9.36769V15.9438C107.484 16.2262 107.41 16.5054 107.259 16.7444C107.15 16.9059 106.998 17.0329 106.819 17.1105C106.64 17.1882 106.443 17.2133 106.251 17.1829C106.156 17.1711 106.063 17.1461 105.975 17.1087C105.843 17.0551 105.724 16.9763 105.623 16.8766C105.503 16.7607 105.412 16.6181 105.358 16.4605C105.303 16.3028 105.287 16.1346 105.31 15.9694V9.00569C105.31 8.30956 104.828 7.42313 104.406 7.00313C104.111 6.71161 103.76 6.48273 103.374 6.33019C103.325 6.3093 103.277 6.29074 103.226 6.2745C102.09 5.88466 100.697 6.07958 99.7883 6.89638C99.3602 7.28531 99.0483 7.78588 98.8889 8.342L98.8471 8.50213C98.7802 8.7865 98.7471 9.07781 98.7496 9.37V15.6189C98.7496 16.2966 98.6408 17.0576 97.8477 17.1853C97.6408 17.2183 97.4283 17.1909 97.2358 17.1064C97.1114 17.0497 96.9983 16.9711 96.9021 16.8743C96.5777 16.5495 96.582 16.2478 96.5845 15.9067V9.36769C96.5789 8.71788 96.6852 8.07194 96.8977 7.45794C96.9252 7.37669 96.9577 7.29088 96.9927 7.205L97.0039 7.1795C97.0389 7.09825 97.0689 7.024 97.0989 6.94744C97.2802 6.55364 97.5102 6.18413 97.7833 5.84753L97.9546 5.64798C98.0239 5.56908 98.082 5.50643 98.1283 5.46001C98.5021 5.08829 98.9296 4.77534 99.3964 4.53183C100.384 4.02966 101.496 3.82341 102.598 3.9378C103.318 3.99939 104.019 4.19951 104.663 4.52719C105.288 4.84835 105.841 5.2955 106.286 5.84057C106.791 6.4615 107.148 7.19025 107.329 7.97075C107.347 8.05194 107.366 8.14013 107.385 8.23063C107.457 8.60506 107.486 8.98656 107.473 9.36769ZM62.53 14.9693C62.2989 15.3624 61.9962 15.7088 61.6376 15.9903C61.5703 16.0413 61.4984 16.097 61.4196 16.1504C61.3408 16.2061 61.2643 16.2548 61.1878 16.2989C60.5086 16.704 59.755 16.9684 58.9717 17.0762C58.0948 17.2037 57.2035 17.1951 56.3292 17.0507C55.7634 16.9651 55.2105 16.8091 54.6834 16.5866C54.198 16.3806 53.7475 16.1004 53.3482 15.7559C53.0887 15.5538 52.87 15.3041 52.7037 15.0203C52.6121 14.8146 52.5852 14.5859 52.6267 14.3646C52.668 14.1432 52.7758 13.9398 52.9356 13.7812C53.0381 13.6778 53.1602 13.5958 53.2947 13.54C53.4292 13.4843 53.5734 13.4558 53.7191 13.4563C54.3356 13.4563 54.4284 13.751 54.7784 14.0736C54.819 14.1128 54.8615 14.1499 54.9059 14.1849C54.9545 14.2244 55.0009 14.2592 55.0403 14.287L55.1539 14.3659L55.1794 14.3822L55.3371 14.475C55.395 14.5074 55.4506 14.5353 55.4993 14.5585L55.6801 14.6351L55.8725 14.707L55.9583 14.7349L56.0649 14.7674L56.2736 14.8254C56.3338 14.8393 56.4057 14.8556 56.4937 14.8718L56.7256 14.9113C56.9714 14.9482 57.219 14.9714 57.4674 14.9808C58.107 15.0163 58.7474 14.9288 59.3542 14.7233C59.6248 14.6245 59.8818 14.492 60.1192 14.3288C60.3238 14.2011 60.4911 14.0218 60.6042 13.8086C60.7174 13.5956 60.7724 13.3564 60.7636 13.1152C60.7666 12.9443 60.7407 12.774 60.6871 12.6117L60.6709 12.5699C60.6066 12.4167 60.5083 12.2802 60.3834 12.1708C60.2289 12.0382 60.0564 11.928 59.8712 11.8436C59.238 11.5729 58.5714 11.3888 57.8892 11.2959C57.6574 11.2565 57.4001 11.2194 57.1428 11.1823L56.8322 11.1335C56.4799 11.0778 56.0974 11.0152 55.7102 10.927C55.3096 10.8414 54.9171 10.7211 54.5373 10.5673C53.862 10.3103 53.2819 9.85175 52.8752 9.25394C52.5039 8.67556 52.3503 7.98381 52.4418 7.30244C52.4572 7.17906 52.4797 7.05669 52.509 6.93581V6.901C52.7296 6.07933 53.2339 5.36245 53.9323 4.87758C54.2286 4.66785 54.5484 4.49341 54.885 4.3578C55.3643 4.1628 55.8669 4.03097 56.3802 3.96565C57.0374 3.8864 57.7012 3.88018 58.3598 3.94708H58.3737C58.4711 3.95868 58.5754 3.97493 58.6866 3.99349C59.4642 4.11053 60.2069 4.39558 60.8633 4.82885C61.018 4.93355 61.1652 5.04909 61.3037 5.1746C61.4494 5.29387 61.5795 5.43109 61.6909 5.583C61.8479 5.80306 61.9187 6.07328 61.8897 6.34221C61.8607 6.61114 61.734 6.86 61.5335 7.04144C61.3331 7.22288 61.0731 7.32419 60.8029 7.32606C60.5327 7.328 60.2712 7.23038 60.0682 7.05188C59.8431 6.82013 59.5826 6.62583 59.2963 6.47638C58.8679 6.2783 58.4097 6.15284 57.9402 6.1051C57.3621 6.04005 56.7771 6.07538 56.2109 6.20953C55.7431 6.30308 55.3137 6.53414 54.9777 6.87319C54.8082 7.05963 54.7027 7.29538 54.6764 7.54613C54.5442 8.8015 57.319 8.99175 57.8452 9.07294C59.141 9.27019 60.4553 9.47206 61.554 10.2518C61.987 10.5495 62.3445 10.9443 62.598 11.4048C62.8516 11.8653 62.9942 12.3786 63.0144 12.9041C63.0144 13.034 63.0144 13.1639 63.0144 13.2939C62.9911 13.8834 62.8248 14.4584 62.53 14.9693ZM37.6224 6.59936C37.6202 6.7365 37.5919 6.87194 37.539 6.9985C37.4582 7.19088 37.3225 7.35519 37.149 7.47075C36.9754 7.58631 36.7715 7.64806 36.5631 7.64819C36.4239 7.6475 36.2862 7.61994 36.1574 7.567C35.9368 7.44713 35.7384 7.29013 35.5709 7.10288C35.4128 6.96769 35.2456 6.84369 35.0702 6.73163C34.8336 6.57548 34.5821 6.44333 34.3192 6.33715C33.5048 6.01426 32.6145 5.93368 31.7554 6.1051C31.4647 6.16111 31.1804 6.24664 30.907 6.36035C29.9375 6.76261 29.1373 7.48894 28.6428 8.41556C28.1482 9.34219 27.99 10.4118 28.1949 11.4421C28.3989 12.4703 28.9529 13.3957 29.7624 14.0605C30.5719 14.7253 31.5869 15.0883 32.634 15.0876H32.729C33.5664 15.0696 34.3823 14.8198 35.0865 14.3659C35.2759 14.2436 35.4556 14.1071 35.6243 13.9575C35.7286 13.867 35.8376 13.7394 35.9442 13.6582C36.1279 13.5196 36.3516 13.4447 36.5816 13.4447C36.8624 13.4453 37.1315 13.5573 37.3301 13.756C37.5285 13.9547 37.6404 14.2241 37.641 14.5051C37.6432 14.6481 37.6172 14.79 37.5645 14.9228C37.5106 15.0515 37.4318 15.1682 37.3327 15.2663C36.7159 15.8824 35.9852 16.3726 35.1816 16.7096C34.3727 17.0428 33.5064 17.2139 32.6317 17.2131C32.1958 17.2134 31.761 17.1707 31.3335 17.0855C30.9082 17.0007 30.4921 16.8748 30.091 16.7096C28.8791 16.2026 27.8431 15.3495 27.1124 14.2569C26.8706 13.897 26.6656 13.5138 26.5004 13.1129C26.3336 12.7111 26.207 12.2936 26.1226 11.8668C25.9533 11.0088 25.9533 10.1259 26.1226 9.26788C26.2926 8.41319 26.6289 7.60025 27.1124 6.8755C27.3549 6.51297 27.632 6.17491 27.9399 5.8661C28.8659 4.93623 30.0472 4.30299 31.3335 4.04686C31.7612 3.96283 32.1959 3.92009 32.6317 3.91923C34.3558 3.91849 36.0126 4.58923 37.2515 5.78952C37.3676 5.8901 37.4608 6.01444 37.5248 6.15415C37.5888 6.29385 37.6221 6.44567 37.6224 6.59936ZM90.9933 4.38333C91.3758 4.5534 91.7389 4.76258 92.0783 5.00753C92.4227 5.25483 92.7408 5.53625 93.0289 5.84753C93.6089 6.47358 94.0639 7.20544 94.3683 8.00325C94.5233 8.40456 94.6402 8.81938 94.7183 9.24238C94.9583 10.5249 94.8377 11.849 94.3683 13.0664C94.2152 13.4655 94.0252 13.8493 93.8008 14.2128C93.257 15.1149 92.4921 15.8633 91.5783 16.3867C90.6646 16.9101 89.6327 17.1914 88.5802 17.2038C88.1658 17.2033 87.7527 17.1589 87.3471 17.0716C86.9402 16.9858 86.5439 16.8566 86.1652 16.6864C85.7846 16.5114 85.4227 16.2984 85.0845 16.0506C84.0458 15.3005 83.2483 14.2634 82.7896 13.0664C82.6352 12.6651 82.5177 12.2503 82.4396 11.8273C82.2021 10.5486 82.3233 9.22881 82.7896 8.01481C82.9427 7.61581 83.1333 7.23206 83.3577 6.86856C83.8052 6.14294 84.3902 5.51224 85.0802 5.01217C85.4195 4.76807 85.7833 4.55894 86.1652 4.38796C86.9239 4.04705 87.7464 3.8704 88.5789 3.86961C89.4108 3.86881 90.2333 4.04386 90.9933 4.38333Z" fill="#1FC2C2"/>
<path d="M110.894 0.970304L111.875 2.49716L112.846 0.970304C112.861 0.94715 112.88 0.926098 112.901 0.907652C112.92 0.892055 112.941 0.878812 112.964 0.868204C112.985 0.858658 113.008 0.8524 113.031 0.849641C113.053 0.846371 113.076 0.846371 113.098 0.849641C113.121 0.855101 113.142 0.864532 113.161 0.877486C113.18 0.891895 113.196 0.908228 113.212 0.926216C113.226 0.946965 113.236 0.96963 113.244 0.993509C113.248 1.0189 113.248 1.04469 113.244 1.07008V3.52049C113.245 3.54576 113.241 3.57099 113.233 3.59474C113.226 3.61789 113.214 3.63927 113.198 3.65739C113.184 3.67432 113.168 3.68917 113.149 3.70148L113.091 3.72701C113.05 3.73629 113.007 3.73629 112.966 3.72701C112.946 3.72119 112.926 3.7126 112.908 3.70148C112.89 3.68997 112.873 3.67501 112.86 3.65739C112.843 3.63913 112.831 3.61784 112.822 3.59474C112.816 3.5705 112.812 3.54559 112.811 3.52049V1.80567L112.065 2.96589C112.05 2.9904 112.032 3.01237 112.011 3.03087C111.991 3.0511 111.966 3.06621 111.939 3.07495C111.89 3.09347 111.836 3.09347 111.786 3.07495C111.76 3.06569 111.735 3.05064 111.715 3.03087C111.695 3.01224 111.678 2.99025 111.666 2.96589L110.917 1.80567V3.51816C110.917 3.54336 110.913 3.5684 110.905 3.59242C110.897 3.61552 110.885 3.6368 110.868 3.65507C110.855 3.67209 110.84 3.68696 110.822 3.69916L110.764 3.72469H110.701C110.681 3.72697 110.66 3.72697 110.639 3.72469C110.618 3.71907 110.597 3.71048 110.578 3.69916C110.561 3.68696 110.545 3.67209 110.532 3.65507C110.516 3.6368 110.503 3.61552 110.495 3.59242C110.491 3.56783 110.491 3.54275 110.495 3.51816V1.07937C110.491 1.05321 110.491 1.02663 110.495 1.00047C110.501 0.97499 110.513 0.951222 110.53 0.930857C110.543 0.912279 110.56 0.895854 110.578 0.882127C110.599 0.870493 110.621 0.861155 110.643 0.854282C110.688 0.842704 110.736 0.847642 110.778 0.868204C110.827 0.88798 110.868 0.924014 110.894 0.970304ZM107.57 0.886768C107.593 0.883029 107.618 0.883029 107.641 0.886768H109.836C109.861 0.883029 109.885 0.883029 109.908 0.886768C109.933 0.89316 109.955 0.905077 109.973 0.921575C109.99 0.93387 110.005 0.948748 110.018 0.965664C110.029 0.983807 110.038 1.00329 110.045 1.02367C110.048 1.04372 110.048 1.06396 110.045 1.08401C110.048 1.10328 110.048 1.12275 110.045 1.14202C110.038 1.1624 110.029 1.18189 110.018 1.20003C110.005 1.21694 109.99 1.23182 109.973 1.24412C109.954 1.25902 109.932 1.27005 109.908 1.2766C109.885 1.28034 109.861 1.28034 109.836 1.2766H108.96V1.7871C108.96 1.9797 108.96 2.16998 108.96 2.36258C108.96 2.79418 108.96 3.17706 108.96 3.52281C108.963 3.54361 108.963 3.56465 108.96 3.58545C108.955 3.60622 108.945 3.62583 108.933 3.64347L108.893 3.68524C108.879 3.69662 108.863 3.70672 108.847 3.7154C108.816 3.72968 108.781 3.73757 108.747 3.73861C108.73 3.74087 108.713 3.74087 108.696 3.73861L108.648 3.72236L108.601 3.68988C108.588 3.67765 108.576 3.66359 108.566 3.64811C108.556 3.63081 108.548 3.61204 108.543 3.59242C108.54 3.5717 108.54 3.55049 108.543 3.52977V1.29517H107.665C107.641 1.29869 107.616 1.29869 107.593 1.29517C107.57 1.2873 107.549 1.27552 107.53 1.26036C107.514 1.24718 107.5 1.23152 107.488 1.21395C107.476 1.19622 107.468 1.1766 107.463 1.15594C107.46 1.13673 107.46 1.11714 107.463 1.09793C107.46 1.07796 107.46 1.05757 107.463 1.0376C107.468 1.01694 107.476 0.997317 107.488 0.979586C107.5 0.962494 107.515 0.946912 107.53 0.933177C107.55 0.918857 107.571 0.907153 107.593 0.89837L107.57 0.886768Z" fill="#1FC2C2"/>
</svg>
