<svg width="100" height="21" viewBox="0 0 100 21" fill="none" xmlns="http://www.w3.org/2000/svg">
<path d="M73.4403 16.0435L69.6216 17.4263L65.8111 16.0435C65.7211 16.009 65.6238 15.9964 65.5276 16.0066C65.4315 16.0168 65.3394 16.0497 65.2593 16.1024C65.1791 16.1551 65.1135 16.2259 65.068 16.3088C65.0226 16.3916 64.9986 16.4841 64.9983 16.578V19.5131C64.9993 19.607 65.0235 19.6993 65.0689 19.7822C65.1144 19.8651 65.1797 19.9362 65.2595 19.9894C65.3391 20.0426 65.4309 20.0765 65.5269 20.0881C65.6229 20.0997 65.7204 20.0887 65.8111 20.056L69.6216 18.6648L73.4403 20.056C73.5313 20.0887 73.6283 20.0997 73.7247 20.0881C73.8203 20.0765 73.9126 20.0426 73.9921 19.9894C74.0716 19.9362 74.137 19.8651 74.1828 19.7822C74.228 19.6993 74.2522 19.607 74.2529 19.5131V16.544C74.2475 16.453 74.2192 16.3647 74.1713 16.2862C74.1242 16.2077 74.0575 16.1413 73.9787 16.0924C73.8992 16.0436 73.8089 16.0137 73.7152 16.0052C73.6223 15.9967 73.5279 16.0098 73.4403 16.0435Z" fill="black"/>
<path d="M10.1942 2.14823V1.02848C10.1942 0.87547 10.1316 0.728796 10.0201 0.620594C9.90871 0.512418 9.75752 0.45164 9.59993 0.45164H0.659698C0.502088 0.45164 0.350935 0.512418 0.239488 0.620594C0.128041 0.728796 0.0654297 0.87547 0.0654297 1.02848V13.7531C0.0654297 13.906 0.128041 14.0528 0.239488 14.161C0.350935 14.2691 0.502088 14.3299 0.659698 14.3299H1.84823C2.00666 14.3299 2.15873 14.2694 2.27156 14.1614C2.3844 14.0535 2.44894 13.9068 2.45124 13.7531V8.29848H6.7422C6.89983 8.29848 7.05095 8.23771 7.16239 8.12951C7.27383 8.0213 7.33649 7.87463 7.33649 7.72162V6.60187C7.3342 6.44953 7.27086 6.30407 7.1599 6.19641C7.04893 6.08868 6.89909 6.02716 6.7422 6.02501H2.45124V2.72509H9.59993C9.67829 2.72624 9.75611 2.71209 9.82874 2.68352C9.90137 2.65496 9.96733 2.61251 10.0228 2.55868C10.0782 2.50491 10.1219 2.44084 10.1514 2.37037C10.1808 2.29983 10.1954 2.2243 10.1942 2.14823Z" fill="black"/>
<path d="M26.1346 2.14823V1.02848C26.1323 0.876211 26.0689 0.73075 25.958 0.623019C25.847 0.515308 25.6972 0.453829 25.5403 0.45164H16.6001C16.4416 0.451626 16.2896 0.512128 16.1768 0.620054C16.0639 0.727988 15.9994 0.874729 15.9971 1.02848V13.7531C15.9994 13.9068 16.0639 14.0535 16.1768 14.1614C16.2896 14.2694 16.4416 14.3299 16.6001 14.3299H25.5403C25.6972 14.3277 25.847 14.2662 25.958 14.1585C26.0689 14.0508 26.1323 13.9054 26.1346 13.7531V12.6502C26.1346 12.5745 26.1192 12.4995 26.0893 12.4295C26.0594 12.3595 26.0157 12.2959 25.9605 12.2424C25.9053 12.1888 25.8398 12.1463 25.7677 12.1173C25.6956 12.0883 25.6183 12.0734 25.5403 12.0734H18.3829V8.29848H22.6738C22.7522 8.29963 22.83 8.28548 22.9026 8.25691C22.9752 8.22828 23.0413 8.18583 23.0967 8.13207C23.1521 8.07824 23.1958 8.01423 23.2253 7.94369C23.2547 7.87322 23.2693 7.79769 23.2681 7.72162V6.60187C23.2681 6.44886 23.2055 6.30212 23.094 6.19398C22.9826 6.08578 22.8315 6.02501 22.6738 6.02501H18.3829V2.72509H25.5403C25.6183 2.72509 25.6956 2.7102 25.7677 2.68116C25.8398 2.65219 25.9053 2.60968 25.9605 2.55612C26.0157 2.50255 26.0594 2.43895 26.0893 2.36902C26.1192 2.29902 26.1346 2.22403 26.1346 2.14823Z" fill="black"/>
<path d="M35.2934 12.0648V1.03682C35.2912 0.884488 35.2278 0.739027 35.1169 0.631296C35.0059 0.523619 34.8561 0.46214 34.6992 0.459951H33.5018C33.345 0.46214 33.1952 0.523619 33.0842 0.631296C32.9732 0.739027 32.9099 0.884488 32.9076 1.03682V13.7614C32.9099 13.9137 32.9732 14.0591 33.0842 14.1668C33.1952 14.2746 33.345 14.336 33.5018 14.3382H42.2411C42.398 14.336 42.5479 14.2746 42.6588 14.1668C42.7698 14.0591 42.8331 13.9137 42.8354 13.7614V12.6501C42.8354 12.4971 42.7728 12.3504 42.6613 12.2422C42.5499 12.134 42.3987 12.0732 42.2411 12.0732L35.2934 12.0648Z" fill="black"/>
<path d="M69.6208 0.0693359C68.1278 0.0693359 66.6678 0.499196 65.4261 1.30454C64.1844 2.10993 63.2166 3.25462 62.6451 4.59388C62.0736 5.93314 61.9241 7.40682 62.2154 8.82854C62.5068 10.2503 63.2259 11.5563 64.2819 12.5814C65.3379 13.6064 66.6833 14.3044 68.148 14.5872C69.6127 14.87 71.1307 14.7249 72.5105 14.1701C73.8904 13.6154 75.0694 12.6759 75.8995 11.4706C76.7288 10.2654 77.1715 8.84828 77.1715 7.39866C77.1715 5.45485 76.3765 3.59054 74.9603 2.21604C73.544 0.841544 71.6239 0.0693359 69.6208 0.0693359ZM69.6208 12.5225C68.5839 12.5225 67.5699 12.2239 66.7079 11.6647C65.8456 11.1054 65.1735 10.3104 64.7767 9.38041C64.3798 8.45037 64.2759 7.42696 64.4783 6.43966C64.6806 5.45229 65.18 4.54537 65.9133 3.83356C66.6466 3.12175 67.5807 2.637 68.5981 2.4406C69.6154 2.24421 70.6698 2.345 71.6279 2.73024C72.586 3.11549 73.4046 3.76787 73.9806 4.60486C74.5574 5.44185 74.8646 6.42592 74.8646 7.43262C74.8767 8.10421 74.7487 8.77121 74.4893 9.39388C74.2299 10.0166 73.8445 10.5823 73.3554 11.0572C72.8656 11.5322 72.2828 11.9067 71.6414 12.1584C71 12.4101 70.3128 12.5339 69.6208 12.5225Z" fill="black"/>
<path d="M50.8753 12.0648V1.03682C50.8731 0.883006 50.8085 0.736332 50.6957 0.628399C50.5828 0.520439 50.4307 0.459937 50.2723 0.459951H49.0838C48.9262 0.459951 48.775 0.520722 48.6636 0.62887C48.5521 0.737073 48.4895 0.883814 48.4895 1.03682V13.7614C48.4895 13.9144 48.5521 14.061 48.6636 14.1693C48.775 14.2775 48.9262 14.3382 49.0838 14.3382H57.823C57.9815 14.3382 58.1335 14.2777 58.2463 14.1698C58.3592 14.0619 58.4237 13.9151 58.426 13.7614V12.6501C58.426 12.5736 58.4104 12.4979 58.38 12.4274C58.3495 12.3568 58.305 12.2928 58.2489 12.2392C58.1928 12.1855 58.1262 12.1432 58.0531 12.1147C57.98 12.0862 57.9018 12.0721 57.823 12.0732L50.8753 12.0648Z" fill="black"/>
<path d="M99.4132 0.451641H98.059C97.9283 0.452254 97.8016 0.493925 97.6979 0.570401C97.5934 0.646871 97.518 0.754063 97.4823 0.875809L94.5805 11.1827L91.6706 0.884298C91.6375 0.760262 91.5628 0.650374 91.4583 0.572039C91.3539 0.493703 91.2259 0.451345 91.0938 0.451641H89.3461C89.2154 0.452254 89.0888 0.493925 88.9843 0.570401C88.8806 0.646871 88.8051 0.754063 88.7687 0.875809L85.8588 11.1912L82.9489 0.875809C82.9146 0.754737 82.8404 0.647814 82.738 0.571244C82.6356 0.494693 82.5096 0.452706 82.381 0.451641H80.9385C80.8542 0.452079 80.7714 0.471631 80.6959 0.508741C80.6205 0.545857 80.5558 0.5995 80.5052 0.665399C80.4554 0.731291 80.4217 0.807693 80.4076 0.888407C80.3934 0.969054 80.3988 1.05192 80.423 1.13028L84.4608 13.9312C84.4965 14.0498 84.572 14.1538 84.6744 14.2273C84.7768 14.3008 84.9014 14.3398 85.0288 14.3384H86.5844C86.7165 14.3387 86.8445 14.2963 86.9489 14.218C87.0534 14.1397 87.1282 14.0298 87.1612 13.9058L90.1674 3.25102L93.1737 13.9143C93.208 14.0367 93.2835 14.1447 93.3879 14.2213C93.4924 14.298 93.6197 14.3392 93.7504 14.3384H95.3061C95.4341 14.3378 95.5587 14.2971 95.6611 14.2222C95.7635 14.1472 95.8383 14.0422 95.874 13.9227L99.9118 1.13028C99.9354 1.05327 99.9415 0.971884 99.928 0.89245C99.9145 0.813016 99.8828 0.737624 99.8343 0.672001C99.7865 0.606446 99.7232 0.552507 99.6504 0.514292C99.5776 0.476085 99.4961 0.454653 99.4132 0.451641Z" fill="black"/>
</svg>
