<svg width="100" height="26" viewBox="0 0 100 26" fill="none" xmlns="http://www.w3.org/2000/svg">
<g clip-path="url(#clip0_2144_1430)">
<path d="M73.3749 20.9742L69.5561 22.357L65.7456 20.9742C65.6557 20.9397 65.5584 20.927 65.4622 20.9373C65.366 20.9475 65.2739 20.9804 65.1938 21.0331C65.1137 21.0858 65.0481 21.1566 65.0026 21.2394C64.9571 21.3223 64.9332 21.4147 64.9329 21.5087V24.4438C64.9338 24.5377 64.9581 24.63 65.0035 24.7129C65.049 24.7958 65.1143 24.8669 65.194 24.9201C65.2737 24.9733 65.3654 25.0072 65.4614 25.0188C65.5574 25.0304 65.6549 25.0193 65.7456 24.9867L69.5561 23.5954L73.3749 24.9867C73.4659 25.0193 73.5629 25.0304 73.6592 25.0188C73.7549 25.0072 73.8472 24.9733 73.9267 24.9201C74.0062 24.8669 74.0716 24.7958 74.1174 24.7129C74.1625 24.63 74.1868 24.5377 74.1874 24.4438V21.4747C74.1821 21.3837 74.1538 21.2954 74.1059 21.2169C74.0588 21.1384 73.9921 21.0719 73.9132 21.0231C73.8337 20.9743 73.7435 20.9444 73.6498 20.9359C73.5568 20.9274 73.4625 20.9405 73.3749 20.9742Z" fill="black"/>
<path d="M10.1287 7.0789V5.95914C10.1287 5.80613 10.0662 5.65946 9.95472 5.55126C9.84328 5.44308 9.69209 5.3823 9.5345 5.3823H0.594268C0.436658 5.3823 0.285506 5.44308 0.174059 5.55126C0.0626118 5.65946 0 5.80613 0 5.95914V18.6838C0 18.8367 0.0626118 18.9834 0.174059 19.0916C0.285506 19.1998 0.436658 19.2605 0.594268 19.2605H1.7828C1.94123 19.2606 2.0933 19.2001 2.20613 19.0921C2.31897 18.9842 2.38351 18.8375 2.38581 18.6838V13.2291H6.67677C6.8344 13.2291 6.98552 13.1684 7.09696 13.0602C7.2084 12.952 7.27106 12.8053 7.27106 12.6523V11.5325C7.26877 11.3802 7.20543 11.2347 7.09447 11.1271C6.9835 11.0193 6.83366 10.9578 6.67677 10.9557H2.38581V7.65576H9.5345C9.61286 7.6569 9.69068 7.64275 9.76331 7.61419C9.83594 7.58562 9.9019 7.54317 9.95735 7.48934C10.0127 7.43558 10.0565 7.3715 10.086 7.30103C10.1154 7.23049 10.13 7.15496 10.1287 7.0789Z" fill="black"/>
<path d="M26.0691 7.0789V5.95914C26.0669 5.80688 26.0035 5.66141 25.8926 5.55368C25.7816 5.44597 25.6317 5.38449 25.4749 5.3823H16.5346C16.3762 5.38229 16.2242 5.44279 16.1113 5.55072C15.9985 5.65865 15.9339 5.80539 15.9316 5.95914V18.6838C15.9339 18.8375 15.9985 18.9842 16.1113 19.0921C16.2242 19.2001 16.3762 19.2606 16.5346 19.2605H25.4749C25.6317 19.2584 25.7816 19.1969 25.8926 19.0892C26.0035 18.9815 26.0669 18.836 26.0691 18.6838V17.5809C26.0691 17.5052 26.0538 17.4302 26.0239 17.3602C25.994 17.2902 25.9503 17.2266 25.8951 17.173C25.8399 17.1195 25.7744 17.077 25.7023 17.048C25.6302 17.019 25.5529 17.0041 25.4749 17.0041H18.3174V13.2291H22.6084C22.6867 13.2303 22.7646 13.2161 22.8372 13.1876C22.9098 13.1589 22.9758 13.1165 23.0312 13.0627C23.0867 13.0089 23.1304 12.9449 23.1598 12.8744C23.1893 12.8039 23.2038 12.7284 23.2027 12.6523V11.5325C23.2027 11.3795 23.14 11.2328 23.0286 11.1246C22.9172 11.0164 22.766 10.9557 22.6084 10.9557H18.3174V7.65576H25.4749C25.5529 7.65576 25.6302 7.64087 25.7023 7.61183C25.7744 7.58286 25.8399 7.54034 25.8951 7.48678C25.9503 7.43322 25.994 7.36962 26.0239 7.29968C26.0538 7.22968 26.0691 7.15469 26.0691 7.0789Z" fill="black"/>
<path d="M35.228 16.9954V5.96749C35.2257 5.81515 35.1624 5.66969 35.0514 5.56196C34.9405 5.45428 34.7906 5.3928 34.6337 5.39061H33.4364C33.2796 5.3928 33.1297 5.45428 33.0188 5.56196C32.9078 5.66969 32.8445 5.81515 32.8422 5.96749V18.692C32.8445 18.8444 32.9078 18.9898 33.0188 19.0975C33.1297 19.2052 33.2796 19.2667 33.4364 19.2689H42.1757C42.3326 19.2667 42.4824 19.2052 42.5934 19.0975C42.7044 18.9898 42.7677 18.8444 42.7699 18.692V17.5808C42.7699 17.4278 42.7073 17.281 42.5959 17.1729C42.4845 17.0647 42.3333 17.0039 42.1757 17.0039L35.228 16.9954Z" fill="black"/>
<path d="M69.5554 5C68.0624 5 66.6024 5.42986 65.3607 6.2352C64.1189 7.04059 63.1512 8.18528 62.5797 9.52454C62.0082 10.8638 61.8587 12.3375 62.15 13.7592C62.4413 15.181 63.1605 16.487 64.2165 17.512C65.2725 18.537 66.6179 19.235 68.0826 19.5179C69.5473 19.8006 71.0653 19.6555 72.4451 19.1008C73.8249 18.5461 75.004 17.6066 75.834 16.4013C76.6634 15.196 77.1061 13.7789 77.1061 12.3293C77.1061 10.3855 76.311 8.52121 74.8948 7.14671C73.4786 5.77221 71.5584 5 69.5554 5ZM69.5554 17.4531C68.5185 17.4531 67.5045 17.1546 66.6425 16.5953C65.7802 16.036 65.1081 15.2411 64.7112 14.3111C64.3143 13.381 64.2105 12.3576 64.4128 11.3703C64.6152 10.383 65.1145 9.47603 65.8479 8.76423C66.5812 8.05242 67.5153 7.56766 68.5326 7.37127C69.55 7.17487 70.6044 7.27566 71.5625 7.66091C72.5206 8.04615 73.3391 8.69854 73.9152 9.53552C74.4919 10.3725 74.7991 11.3566 74.7991 12.3633C74.8113 13.0349 74.6833 13.7019 74.4239 14.3245C74.1645 14.9473 73.7791 15.513 73.29 15.9879C72.8002 16.4629 72.2174 16.8373 71.576 17.089C70.9346 17.3407 70.2473 17.4646 69.5554 17.4531Z" fill="black"/>
<path d="M50.8099 16.9954V5.96749C50.8076 5.81367 50.7431 5.667 50.6302 5.55906C50.5174 5.4511 50.3653 5.3906 50.2069 5.39061H49.0184C48.8608 5.39061 48.7096 5.45139 48.5981 5.55953C48.4867 5.66774 48.424 5.81448 48.424 5.96749V18.692C48.424 18.845 48.4867 18.9917 48.5981 19.0999C48.7096 19.2081 48.8608 19.2689 49.0184 19.2689H57.7576C57.916 19.2689 58.0681 19.2084 58.1809 19.1005C58.2937 18.9925 58.3583 18.8458 58.3606 18.692V17.5808C58.3606 17.5043 58.3449 17.4286 58.3146 17.358C58.2841 17.2875 58.2396 17.2235 58.1834 17.1698C58.1273 17.1162 58.0608 17.0738 57.9877 17.0453C57.9146 17.0168 57.8363 17.0028 57.7576 17.0039L50.8099 16.9954Z" fill="black"/>
<path d="M99.3478 5.38231H97.9936C97.8629 5.38292 97.7362 5.42459 97.6324 5.50107C97.528 5.57754 97.4526 5.68473 97.4168 5.80647L94.515 16.1134L91.6051 5.81496C91.5721 5.69093 91.4973 5.58104 91.3929 5.5027C91.2885 5.42437 91.1604 5.38201 91.0284 5.38231H89.2807C89.15 5.38292 89.0233 5.42459 88.9189 5.50107C88.8151 5.57754 88.7397 5.68473 88.7033 5.80647L85.7934 16.1219L82.8835 5.80647C82.8491 5.6854 82.775 5.57848 82.6726 5.50191C82.5702 5.42536 82.4442 5.38337 82.3155 5.38231H80.873C80.7888 5.38274 80.7059 5.4023 80.6305 5.43941C80.555 5.47652 80.4903 5.53016 80.4398 5.59606C80.39 5.66195 80.3563 5.73836 80.3421 5.81907C80.328 5.89972 80.3334 5.98259 80.3576 6.06094L84.3954 18.8619C84.4311 18.9805 84.5065 19.0844 84.609 19.1579C84.7114 19.2314 84.836 19.2705 84.9633 19.269H86.519C86.6511 19.2694 86.7791 19.227 86.8835 19.1486C86.9879 19.0704 87.0627 18.9605 87.0957 18.8364L90.102 8.18168L93.1083 18.8449C93.1426 18.9673 93.2181 19.0753 93.3225 19.152C93.4269 19.2287 93.5543 19.2698 93.685 19.269H95.2406C95.3687 19.2685 95.4933 19.2277 95.5957 19.1528C95.6981 19.0779 95.7729 18.9729 95.8086 18.8534L99.8464 6.06094C99.8699 5.98394 99.876 5.90255 99.8625 5.82311C99.8491 5.74368 99.8174 5.66829 99.7689 5.60267C99.7211 5.53711 99.6577 5.48317 99.585 5.44496C99.5122 5.40675 99.4307 5.38532 99.3478 5.38231Z" fill="black"/>
</g>
<defs>
<clipPath id="clip0_2144_1430">
<rect width="100" height="25.02" fill="white"/>
</clipPath>
</defs>
</svg>
