<svg width="48" height="21" viewBox="0 0 48 21" fill="none" xmlns="http://www.w3.org/2000/svg">
<path d="M41.9604 16.3723L41.9391 16.3997L41.9452 16.434C42.0474 17.0049 42.2318 17.4295 42.5082 17.6934C42.7854 17.958 43.1594 18.0862 43.6207 18.0862C43.8798 18.0862 44.168 18.0136 44.484 17.8733C44.8005 17.7328 45.0912 17.5501 45.3561 17.3253L45.3568 17.3247C45.5056 17.1956 45.6465 17.1377 45.7806 17.1377C45.9185 17.1377 46.0362 17.2089 46.1341 17.3772C46.2338 17.5484 46.2855 17.7576 46.2855 18.0079C46.2855 18.5626 46.0795 19.0001 45.6672 19.3281C44.9322 19.9083 44.0998 20.1979 43.1671 20.1979C41.8242 20.1979 40.8507 19.664 40.2325 18.5976C39.9193 18.0573 39.6838 17.433 39.5269 16.7236L39.5044 16.6219L39.4129 16.6718L39.189 16.7941C39.1888 16.7942 39.1886 16.7943 39.1884 16.7944C38.6597 17.0702 38.0999 17.2079 37.508 17.2079C36.7566 17.2079 36.1993 17.0252 35.8228 16.6723C35.4453 16.3185 35.2536 15.8388 35.2536 15.2242C35.2536 15.0235 35.2746 14.8227 35.3167 14.6217L35.3171 14.6217L35.318 14.6138C35.3467 14.3394 35.3616 14.1498 35.3616 14.0488C35.3616 13.9318 35.341 13.83 35.2874 13.7556C35.2305 13.6766 35.1452 13.6406 35.0457 13.6406C34.911 13.6406 34.7685 13.7115 34.6211 13.8308C34.4722 13.9514 34.3086 14.1294 34.1304 14.3621C33.7728 14.8288 33.4208 15.4427 33.0737 16.202C32.7261 16.9625 32.4438 17.7642 32.2267 18.607L32.2265 18.6079C32.0684 19.2528 31.8884 19.6719 31.6942 19.8829C31.5058 20.0875 31.2035 20.1979 30.769 20.1979C30.5091 20.1979 30.2925 20.1328 30.1152 20.0062C29.9375 19.8793 29.7934 19.6866 29.686 19.4219C29.6275 19.2779 29.5765 19.1091 29.5331 18.9149L29.5041 18.7852L29.4047 18.8734C28.4024 19.7629 27.461 20.1979 26.5787 20.1979C25.662 20.1979 25.0094 19.8896 24.6026 19.284C24.1891 18.6685 23.9787 17.8468 23.9787 16.812C23.9787 16.1996 24.0607 15.4105 24.226 14.4435C24.3911 13.4773 24.6027 12.5768 24.8608 11.7419L24.8611 11.7409C24.9889 11.307 25.1555 11.0237 25.3519 10.8737C25.5473 10.7245 25.8716 10.6423 26.3411 10.6423C26.7025 10.6423 26.9602 10.7003 27.1253 10.8054C27.2843 10.9066 27.3644 11.0558 27.3644 11.2651C27.3644 11.5985 27.23 12.3865 26.9559 13.64C26.6106 15.1507 26.4356 16.1832 26.4356 16.7295C26.4356 17.1472 26.4936 17.4781 26.6173 17.7143C26.6811 17.8361 26.7686 17.9304 26.8804 17.9936C26.9917 18.0566 27.1226 18.0862 27.2699 18.0862C27.5599 18.0862 27.9029 17.8966 28.2937 17.5511C28.5443 17.3296 28.8468 17.0274 29.2011 16.6451C29.2006 16.7006 29.2003 16.7563 29.2003 16.812L29.357 16.8128L29.357 16.812L29.3609 16.4416L29.361 16.4354C29.3958 14.794 29.6597 13.2301 30.1522 11.7434L30.1523 11.743C30.2774 11.3581 30.48 11.0826 30.7567 10.9087C31.0345 10.7341 31.4317 10.6423 31.957 10.6423C32.2436 10.6423 32.4262 10.6774 32.5216 10.7344C32.6037 10.7833 32.6563 10.8808 32.6563 11.0589C32.6563 11.1597 32.631 11.3312 32.5771 11.5783C32.5235 11.8237 32.443 12.1382 32.3352 12.5224L32.3348 12.5237C32.1906 13.0745 32.0751 13.5569 31.9883 13.9709C31.9011 14.3871 31.8288 14.8988 31.771 15.5055L31.9216 15.5421C32.3949 14.3646 32.9243 13.4096 33.5086 12.6748C34.0953 11.9371 34.6674 11.4162 35.2242 11.1067C35.7854 10.7947 36.2942 10.6423 36.7521 10.6423C37.2089 10.6423 37.5369 10.7514 37.751 10.9557C37.9643 11.1594 38.0777 11.4706 38.0777 11.9043C38.0777 12.074 38.0148 12.4986 37.8848 13.1881C37.8272 13.4632 37.7838 13.6875 37.7548 13.8606C37.7261 14.0322 37.7105 14.1584 37.7105 14.2344C37.7105 14.4825 37.7565 14.6828 37.8611 14.8226C37.9689 14.9667 38.1297 15.0344 38.3288 15.0344C38.6032 15.0344 38.915 14.9069 39.2611 14.6684L39.2957 14.6445L39.2949 14.6025C39.2934 14.5215 39.2927 14.4402 39.2927 14.3582C39.2927 12.6878 39.5186 10.7826 39.9714 8.64193C40.4237 6.50364 41.0907 4.66965 41.9714 3.13855C42.85 1.6111 43.8835 0.868347 45.0679 0.868347C45.7308 0.868347 46.2504 1.1593 46.6329 1.75019C47.0172 2.34397 47.2143 3.20297 47.2143 4.33672C47.2143 5.95815 46.7467 7.84416 45.8061 9.99655C44.8658 12.1482 43.5841 14.2734 41.9604 16.3723ZM41.7712 13.6556L41.7661 13.9343L41.9156 13.6991C42.9406 12.0866 43.7567 10.4699 44.3636 8.84908C44.9708 7.22749 45.2758 5.74371 45.2758 4.39858C45.2758 3.87343 45.2254 3.46994 45.1193 3.19503C45.066 3.05698 44.9969 2.94652 44.9084 2.87012C44.8185 2.79242 44.7121 2.75313 44.5927 2.75313C44.4863 2.75313 44.384 2.79907 44.2869 2.87751C44.1901 2.9558 44.0941 3.07 43.998 3.21635C43.8059 3.50906 43.6055 3.94352 43.396 4.51601C42.9764 5.66235 42.6082 7.08275 42.291 8.77627C41.9734 10.471 41.8001 12.0974 41.7712 13.6556ZM26.7515 9.12479C26.1566 9.12479 25.7251 8.99275 25.4427 8.7424C25.1603 8.49204 25.0155 8.14061 25.0155 7.6772C25.0155 7.22121 25.2016 6.84083 25.5807 6.53159C25.9605 6.22167 26.4354 6.06465 27.0107 6.06465C27.5315 6.06465 27.9456 6.18549 28.2598 6.42024C28.5691 6.65131 28.7252 6.97741 28.7252 7.40913C28.7252 7.9391 28.5458 8.35283 28.1907 8.65923C27.8339 8.96716 27.3568 9.12479 26.7515 9.12479Z" fill="url(#paint0_linear_1207_2134)" stroke="#4A4866" stroke-width="0.156617"/>
<g clip-path="url(#clip0_1207_2134)">
<path fill-rule="evenodd" clip-rule="evenodd" d="M4.73012 0.989258H7.315V7.59723H0.707031V5.01234C0.707031 2.79045 2.50823 0.989258 4.73012 0.989258Z" fill="#375DDB"/>
<path d="M13.9234 0.989258H7.31543V7.59723H13.9234V0.989258Z" fill="#33B566"/>
<path fill-rule="evenodd" clip-rule="evenodd" d="M13.9229 0.989258H16.5077C18.7296 0.989258 20.5308 2.79045 20.5308 5.01234V7.59723H13.9229V0.989258Z" fill="#DD3263"/>
<path d="M7.315 7.59766H0.707031V14.2056H7.315V7.59766Z" fill="#1FAFF5"/>
<path d="M13.9234 7.59766H7.31543V14.2056H13.9234V7.59766Z" fill="#78CC7D"/>
<path d="M20.5308 7.59766H13.9229V14.2056H20.5308V7.59766Z" fill="#F56E4B"/>
<path fill-rule="evenodd" clip-rule="evenodd" d="M0.707031 14.2051H7.315V20.813H4.73012C2.50823 20.813 0.707031 19.0118 0.707031 16.79V14.2051Z" fill="#42CEE0"/>
<path d="M13.9234 14.2051H7.31543V20.813H13.9234V14.2051Z" fill="#C2DC80"/>
<path fill-rule="evenodd" clip-rule="evenodd" d="M13.9229 14.2051H20.5308V16.79C20.5308 19.0118 18.7296 20.813 16.5077 20.813H13.9229V14.2051Z" fill="#FFAE4A"/>
<path fill-rule="evenodd" clip-rule="evenodd" d="M5.56209 13.7104C5.4062 13.3313 5.58403 12.8962 5.95928 12.7387C6.33454 12.5812 6.76512 12.7609 6.92102 13.14C7.12412 13.634 7.42274 14.0831 7.79804 14.4616C8.55151 15.2215 9.56878 15.6554 10.6561 15.6554C11.7435 15.6554 12.7607 15.2215 13.5142 14.4616C13.8895 14.0831 14.1881 13.634 14.3912 13.14C14.5471 12.7609 14.9777 12.5812 15.353 12.7387C15.7282 12.8962 15.906 13.3313 15.7501 13.7104C15.4726 14.3854 15.0653 14.9981 14.5538 15.5139C13.5271 16.5493 12.1372 17.1422 10.6561 17.1422C9.17508 17.1422 7.78517 16.5493 6.75848 15.5139C6.24699 14.9981 5.83961 14.3854 5.56209 13.7104Z" fill="white"/>
</g>
<defs>
<linearGradient id="paint0_linear_1207_2134" x1="30.8885" y1="-1.94023" x2="52.7714" y2="24.3523" gradientUnits="userSpaceOnUse">
<stop stop-color="#4A4866" stop-opacity="0.6"/>
<stop stop-color="#4A4866" stop-opacity="0.5"/>
<stop offset="1" stop-color="#4A4866" stop-opacity="0.8"/>
</linearGradient>
<clipPath id="clip0_1207_2134">
<rect width="19.8239" height="19.8239" fill="white" transform="translate(0.707031 0.989258)"/>
</clipPath>
</defs>
</svg>
