<svg width="48" height="26" viewBox="0 0 48 26" fill="none" xmlns="http://www.w3.org/2000/svg">
<path d="M0.115234 20.6061H3.90081V16.6102L5.16267 15.3221L9.00082 20.6061H13.6276L7.81782 12.7458L13.6013 6.93597H9.07968L3.79565 12.3252V0.863281H0.115234V20.6061Z" fill="#1963C6"/>
<path d="M16.9033 6.93555H12.96L18.1388 20.3165C18.2966 20.7371 18.3754 21.0263 18.3754 21.3418C18.3754 22.183 17.9022 22.6036 17.0084 22.6036H13.6698V25.8634H17.0084C19.0852 25.8634 20.978 25.4428 21.9244 22.7876L27.6291 6.93555H23.8698L20.4785 17.2933L16.9033 6.93555Z" fill="#1963C6"/>
<path d="M32.321 0.863281H28.6406V20.6061H32.321V0.863281Z" fill="#1963C6"/>
<path d="M47.3334 17.9244C46.8865 17.9244 46.5448 17.8193 46.5448 17.1358V12.0358C46.5448 8.01358 43.469 6.67285 40.4984 6.67285C36.9231 6.67285 34.3994 8.53935 34.3994 11.6151H37.738C37.7906 10.4059 38.8159 9.5909 40.3406 9.5909C41.8654 9.5909 42.838 10.4321 42.838 11.9569V12.5615H39.1839C35.6875 12.5615 34.0576 14.2177 34.0576 16.6626C34.0576 19.2914 36.003 20.8688 39.0262 20.8688C41.0504 20.8688 42.6277 20.159 43.3901 19.0023C43.6793 20.1853 44.6783 20.6059 45.8875 20.6059H47.8855V17.9244H47.3334ZM42.838 15.4533C42.838 17.0832 41.7865 17.977 39.9726 17.977C38.7633 17.977 37.8432 17.5564 37.8432 16.426C37.8432 15.6899 38.2638 14.9538 39.8411 14.9538H42.838V15.4533Z" fill="#1963C6"/>
</svg>
