<svg width="78" height="21" viewBox="0 0 78 21" fill="none" xmlns="http://www.w3.org/2000/svg">
<path d="M77.8813 0.348633H61.2534V5.62294H66.5022V20.3713H72.6322V5.62294H77.8813V0.348633Z" fill="#51007A"/>
<path d="M59.6659 0.348633H53.329L49.8727 5.48833L46.6281 0.348633H39.9067L46.4308 10.4462L39.9999 20.3713H46.5623L49.7834 15.2819L53.0567 20.3713H59.7754L53.2207 10.2625L59.6659 0.348633Z" fill="#51007A"/>
<path d="M12.6926 10.1142L12.6995 10.2824L5.86053 0.348856H0.118164V20.3719H5.89225V9.82946L13.1115 20.3719H18.4655V0.348856H12.6926V10.1142Z" fill="#51007A"/>
<path d="M21.5648 0.348633V5.39317H28.8842L21.1381 20.3713H37.8287V15.2942H30.1054L37.9946 0.348633H21.5648Z" fill="#51007A"/>
</svg>
