<svg width="106" height="21" viewBox="0 0 106 21" fill="none" xmlns="http://www.w3.org/2000/svg">
<path fill-rule="evenodd" clip-rule="evenodd" d="M7.51227 0.386028C7.33466 0.450905 7.18935 0.576548 7.18935 0.665204C7.18935 0.783804 6.96477 0.835467 6.33801 0.860714C5.55683 0.892419 5.48344 0.91708 5.4491 1.15956C5.4168 1.38825 5.34136 1.42377 4.89132 1.42377C4.44951 1.42377 4.37113 1.459 4.37113 1.65863C4.37113 1.83095 4.29275 1.89348 4.07756 1.89348C3.84271 1.89348 3.78399 1.95219 3.78399 2.18704C3.78399 2.42189 3.72528 2.48061 3.49043 2.48061C3.25558 2.48061 3.19687 2.53932 3.19687 2.77417C3.19687 2.98935 3.13434 3.06774 2.96201 3.06774C2.80554 3.06774 2.72716 3.14612 2.72716 3.30259C2.72716 3.47492 2.64878 3.53744 2.4336 3.53744C2.2011 3.53744 2.14003 3.59674 2.14003 3.82278C2.14003 4.02945 2.06694 4.1187 1.87583 4.1457C1.65624 4.17682 1.60545 4.26753 1.57551 4.68234C1.54645 5.0857 1.49566 5.1814 1.3113 5.1814C1.11637 5.1814 1.0832 5.26536 1.0832 5.76031C1.0832 6.27141 1.05208 6.34362 0.818991 6.3768C0.561829 6.41349 0.553905 6.45694 0.521907 7.99111C0.492257 9.40521 0.465246 9.58428 0.257695 9.7296C-0.0992792 9.97972 -0.0411532 11.0527 0.329325 11.0527C0.455852 11.0527 0.496363 11.4061 0.522197 12.726C0.553902 14.3606 0.560948 14.4002 0.818991 14.4369C1.04768 14.4692 1.0832 14.5447 1.0832 14.9947C1.0832 15.4318 1.1196 15.5149 1.31159 15.5149C1.50094 15.5149 1.54615 15.6106 1.5758 16.0727C1.60633 16.5485 1.65037 16.636 1.87583 16.668C2.04169 16.6915 2.14003 16.7869 2.14003 16.924C2.14003 17.0611 2.23838 17.1565 2.40424 17.18C2.57392 17.204 2.68195 17.3121 2.70602 17.4818C2.72951 17.6476 2.82492 17.746 2.96201 17.746C3.09911 17.746 3.19452 17.8443 3.218 18.0102C3.24208 18.1799 3.35011 18.2879 3.51979 18.312C3.68947 18.336 3.78399 18.4306 3.78399 18.5762C3.78399 18.7379 3.86561 18.8028 4.06934 18.8028C4.27601 18.8028 4.36526 18.8759 4.39226 19.067C4.42338 19.2866 4.51409 19.3374 4.9289 19.3673C5.32169 19.3958 5.42796 19.4492 5.42796 19.6189C5.42796 19.8972 5.65253 19.9771 6.43576 19.9771C6.78569 19.9771 7.07192 20.0299 7.07192 20.0945C7.07192 20.1691 7.95261 20.2119 9.47915 20.2119C10.9288 20.2119 11.8864 20.1673 11.8864 20.0998C11.8864 20.0381 12.2431 19.9721 12.679 19.953C13.3657 19.9231 13.4869 19.8837 13.5852 19.6597C13.6707 19.4651 13.8163 19.3923 14.1724 19.3662C14.561 19.3374 14.6526 19.284 14.6835 19.067C14.7119 18.8653 14.7982 18.8028 15.0478 18.8028C15.2339 18.8028 15.5113 18.6763 15.6916 18.5092C15.8659 18.3478 16.055 18.2157 16.1119 18.2157C16.1686 18.2157 16.247 18.1156 16.2857 17.9934C16.3245 17.8713 16.4604 17.7442 16.5872 17.711C16.7695 17.6632 16.8183 17.549 16.8183 17.1697C16.8183 16.7355 16.8464 16.6891 17.1118 16.6891C17.3467 16.6891 17.4054 16.6304 17.4054 16.3956C17.4054 16.1863 17.4688 16.102 17.6264 16.102C17.8537 16.102 17.9878 15.8055 17.9911 15.2985C17.9919 15.1227 18.0774 15.0008 18.2274 14.9618C18.4399 14.9063 18.4622 14.8015 18.4622 13.8653C18.4622 12.8816 18.4751 12.8285 18.7264 12.793C18.9904 12.7554 18.9906 12.753 18.9906 10.4069C18.9906 8.06068 18.9904 8.05834 18.7264 8.02076C18.4749 7.98495 18.4622 7.93328 18.4622 6.92371C18.4622 5.96287 18.4402 5.85836 18.2274 5.80259C18.0859 5.7656 17.9919 5.64142 17.9911 5.49053C17.9878 5.00703 17.8496 4.7117 17.6264 4.7117C17.4688 4.7117 17.4054 4.62745 17.4054 4.41813C17.4054 4.18328 17.3467 4.12457 17.1118 4.12457C16.842 4.12457 16.8183 4.08142 16.8183 3.59616C16.8183 3.16139 16.7801 3.06774 16.6022 3.06774C16.4836 3.06774 16.326 2.93563 16.2526 2.77417C16.178 2.61065 16.0198 2.48061 15.895 2.48061C15.772 2.48061 15.6446 2.37845 15.612 2.25339C15.573 2.10426 15.4077 1.99916 15.1285 1.94691C14.8194 1.88878 14.7046 1.80746 14.7046 1.64541C14.7046 1.46194 14.6162 1.42377 14.1888 1.42377C13.7367 1.42377 13.6642 1.38766 13.5996 1.13021C13.5298 0.8522 13.4825 0.836641 12.706 0.836641C11.9838 0.836641 11.8864 0.810518 11.8864 0.617059C11.8864 0.256855 8.37388 0.0713261 7.51227 0.386028ZM72.8011 0.330536C72.688 0.359892 72.5956 0.485833 72.5956 0.610304C72.5956 0.81257 72.5066 0.836641 71.7659 0.836641C70.8888 0.836641 70.4819 0.968159 70.4819 1.25174C70.4819 1.3542 70.3698 1.42377 70.2042 1.42377C70.0515 1.42377 69.7988 1.52417 69.6426 1.64718C69.4864 1.76989 69.2281 1.88878 69.069 1.91138C68.8738 1.93898 68.7669 2.0385 68.7417 2.2164C68.7176 2.38608 68.6231 2.48061 68.4774 2.48061C68.3139 2.48061 68.2508 2.56251 68.2508 2.77417C68.2508 3.00902 68.1921 3.06774 67.9572 3.06774C67.7456 3.06774 67.6637 3.13085 67.6637 3.29437C67.6637 3.43998 67.5691 3.5345 67.3995 3.55857C67.2298 3.58265 67.1218 3.69068 67.0977 3.86036C67.0736 4.03004 66.9791 4.12457 66.8335 4.12457C66.6435 4.12457 66.6068 4.20912 66.6068 4.64477C66.6068 5.0948 66.5713 5.17025 66.3426 5.20254C66.1213 5.23395 66.0726 5.32408 66.0415 5.75591C66.0159 6.11406 65.9264 6.33482 65.7479 6.47925C65.2588 6.87498 65.3019 14.2978 65.794 14.4263C65.9733 14.4733 66.0197 14.5913 66.0197 15.0003C66.0197 15.4708 66.0447 15.5149 66.3133 15.5149C66.5839 15.5149 66.6068 15.5572 66.6068 16.0542C66.6068 16.4948 66.6497 16.6049 66.8417 16.6551C66.9718 16.6891 67.0766 16.8154 67.0766 16.9378C67.0766 17.0954 67.1608 17.1588 67.3701 17.1588C67.5994 17.1588 67.6637 17.2187 67.6637 17.433C67.6637 17.7307 68.2523 18.3331 68.5435 18.3331C68.6421 18.3331 68.7205 18.437 68.7205 18.568C68.7205 18.7385 68.7989 18.8028 69.0059 18.8028C69.2125 18.8028 69.3018 18.8759 69.3288 19.067C69.3599 19.2866 69.4506 19.3374 69.8654 19.3673C70.2582 19.3958 70.3645 19.4492 70.3645 19.6189C70.3645 19.8972 70.5891 19.9771 71.3723 19.9771C71.7222 19.9771 72.0084 20.0299 72.0084 20.0945C72.0084 20.1691 72.9088 20.2119 74.4744 20.2119C76.04 20.2119 76.9403 20.1691 76.9403 20.0945C76.9403 20.0284 77.2685 19.9771 77.6901 19.9771C78.3603 19.9771 78.4604 19.9459 78.6321 19.6835C78.7763 19.4636 78.9269 19.3899 79.2328 19.3899C79.59 19.3899 79.6411 19.3532 79.6411 19.0964C79.6411 18.8266 79.6843 18.8028 80.1695 18.8028C80.6096 18.8028 80.698 18.7655 80.698 18.5806C80.698 18.4417 80.8077 18.3311 80.9915 18.285C81.2325 18.2245 81.2851 18.1399 81.2851 17.8123C81.2851 17.5927 81.3511 17.3893 81.4319 17.3602C81.5493 17.3177 81.5493 17.2572 81.4319 17.0584C81.3511 16.9216 81.2851 16.6504 81.2851 16.4558V16.102H80.4141C79.3904 16.102 79.1714 16.1663 79.1714 16.4669C79.1714 16.6257 79.0875 16.6891 78.8779 16.6891C78.6671 16.6891 78.5843 16.7526 78.5843 16.9137C78.5843 17.0852 78.4701 17.1574 78.1002 17.2199C77.772 17.2754 77.5979 17.3714 77.5594 17.5185C77.5137 17.6946 77.3669 17.7419 76.7812 17.77C76.163 17.7997 76.0429 17.8426 75.9437 18.0689C75.759 18.4902 73.7234 18.4658 73.3172 18.0375C73.1052 17.8141 72.9211 17.746 72.5286 17.746C72.1473 17.746 71.9864 17.6896 71.8984 17.5249C71.8332 17.4031 71.5995 17.2698 71.3787 17.2284C71.1166 17.1791 70.9563 17.0725 70.917 16.9211C70.8809 16.7834 70.7564 16.6891 70.6102 16.6891C70.4684 16.6891 70.3645 16.6134 70.3645 16.5101C70.3645 16.4117 70.2397 16.2834 70.0871 16.2256C69.9344 16.1675 69.7809 16.0104 69.7456 15.8763C69.7107 15.7421 69.6015 15.6323 69.5029 15.6323C69.4045 15.6323 69.3071 15.5134 69.2865 15.3681C69.2624 15.1984 69.1544 15.0904 68.9847 15.0663C68.756 15.034 68.7205 14.9586 68.7205 14.5085C68.7205 14.0667 68.6853 13.9883 68.4857 13.9883C68.2992 13.9883 68.2505 13.9097 68.2496 13.6067C68.2467 12.805 68.1131 12.3444 67.8833 12.3444C67.6778 12.3444 67.6637 12.2208 67.6637 10.4069C67.6637 8.7488 67.6895 8.46932 67.8428 8.46932C68.0782 8.46932 68.2508 7.99375 68.2508 7.34615C68.2508 6.90375 68.286 6.82537 68.4857 6.82537C68.6853 6.82537 68.7205 6.74699 68.7205 6.30517C68.7205 5.85514 68.756 5.77969 68.9847 5.7474C69.1544 5.72333 69.2624 5.61529 69.2865 5.44561C69.3097 5.2821 69.4054 5.1814 69.5378 5.1814C69.6681 5.1814 69.7806 5.06662 69.8255 4.88784C69.8731 4.6982 69.9817 4.59428 70.132 4.59428C70.2835 4.59428 70.3645 4.51531 70.3645 4.36764C70.3645 4.22203 70.459 4.12751 70.6287 4.10344C70.7984 4.07936 70.9064 3.97133 70.9305 3.80165C70.9628 3.57296 71.0382 3.53744 71.4882 3.53744C71.9301 3.53744 72.0084 3.50222 72.0084 3.30259C72.0084 3.10091 72.0871 3.06744 72.5662 3.06627C73.3492 3.06392 73.6524 2.96206 73.6524 2.70167C73.6524 2.36465 75.8307 2.36436 75.9378 2.70137C76.0103 2.93035 76.448 3.06774 77.105 3.06774C77.3299 3.06774 77.5542 3.15992 77.6763 3.30259C77.7949 3.44086 78.0227 3.53744 78.2308 3.53744C78.4994 3.53744 78.5843 3.59087 78.5843 3.75967C78.5843 4.02094 78.8039 4.12457 79.3572 4.12457C79.6802 4.12457 79.7585 4.17036 79.7585 4.35942C79.7585 4.55523 79.8369 4.59428 80.2283 4.59428C80.6196 4.59428 80.698 4.55523 80.698 4.35942C80.698 4.1871 80.7763 4.12457 80.9915 4.12457C81.2766 4.12457 81.2851 4.10109 81.2851 3.30259C81.2851 2.57455 81.2595 2.48061 81.0629 2.48061C80.924 2.48061 80.8133 2.37081 80.7672 2.18704C80.7203 1.99975 80.6108 1.89348 80.4649 1.89348C80.3392 1.89348 80.1798 1.7878 80.1108 1.65863C80.0181 1.48542 79.8648 1.42377 79.5278 1.42377C79.1426 1.42377 79.0643 1.38179 79.0329 1.15956C78.9985 0.91708 78.9251 0.892419 78.1439 0.860714C77.6757 0.841926 77.2926 0.777053 77.2926 0.717166C77.2926 0.32966 73.916 0.0390262 72.8011 0.330536ZM94.4617 0.332892C94.3138 0.361368 94.1294 0.486128 94.0519 0.6106C93.9354 0.797014 93.7733 0.836641 93.1295 0.836641C92.3944 0.836641 92.3442 0.853962 92.275 1.13021C92.2113 1.38326 92.1352 1.42377 91.7228 1.42377C91.3476 1.42377 91.2313 1.47309 91.1847 1.65217C91.1518 1.77752 91.0115 1.89641 90.8726 1.91637C90.7147 1.93869 90.6064 2.05112 90.5829 2.2164C90.5588 2.38608 90.4643 2.48061 90.3186 2.48061C90.1551 2.48061 90.092 2.56251 90.092 2.77417C90.092 3.00902 90.0333 3.06774 89.7985 3.06774C89.5868 3.06774 89.5049 3.13085 89.5049 3.29437C89.5049 3.43998 89.4104 3.5345 89.2407 3.55857C89.071 3.58265 88.963 3.69068 88.9389 3.86036C88.9148 4.03004 88.8203 4.12457 88.6747 4.12457C88.4848 4.12457 88.4481 4.20912 88.4481 4.64477C88.4481 5.0948 88.4125 5.17025 88.1839 5.20254C87.9584 5.23454 87.9144 5.32202 87.8838 5.79789C87.8551 6.2447 87.8057 6.35566 87.6355 6.35566C87.3736 6.35566 87.2738 6.956 87.2738 8.53009C87.2738 9.3509 87.2309 9.65034 87.0977 9.76102C86.9899 9.85055 86.9215 10.108 86.9215 10.4251C86.9215 10.7767 86.9779 10.9643 87.0977 11.0101C87.238 11.0641 87.2741 11.3193 87.275 12.2689C87.2767 13.8272 87.3671 14.3562 87.644 14.4287C87.8134 14.473 87.8609 14.5984 87.8609 15.0003C87.8609 15.4708 87.8859 15.5149 88.1545 15.5149C88.4252 15.5149 88.4481 15.5572 88.4481 16.0542C88.4481 16.4948 88.4909 16.6049 88.6829 16.6551C88.813 16.6891 88.9178 16.8154 88.9178 16.9378C88.9178 17.0954 89.002 17.1588 89.2113 17.1588C89.4462 17.1588 89.5049 17.2176 89.5049 17.4524C89.5049 17.6873 89.5636 17.746 89.7985 17.746C90.0333 17.746 90.092 17.8047 90.092 18.0395C90.092 18.2547 90.1545 18.3331 90.3269 18.3331C90.4833 18.3331 90.5617 18.4115 90.5617 18.568C90.5617 18.7385 90.6401 18.8028 90.8471 18.8028C91.0537 18.8028 91.143 18.8759 91.17 19.067C91.2011 19.2866 91.2918 19.3374 91.7066 19.3673C91.9811 19.3873 92.2057 19.4495 92.2057 19.5056C92.2057 19.7992 92.6079 19.9771 93.271 19.9771C93.6568 19.9771 93.9671 20.0293 93.9671 20.0945C93.9671 20.1691 94.8478 20.2119 96.3743 20.2119C97.8239 20.2119 98.7815 20.1673 98.7815 20.0998C98.7815 20.0381 99.1382 19.9721 99.5742 19.953C100.294 19.9216 100.37 19.8943 100.404 19.6542C100.437 19.4255 100.512 19.3899 100.962 19.3899C101.439 19.3899 101.482 19.3653 101.482 19.0964C101.482 18.8421 101.535 18.8028 101.872 18.8028C102.142 18.8028 102.341 18.7121 102.517 18.5092C102.657 18.3478 102.852 18.2157 102.949 18.2157C103.048 18.2157 103.126 18.1118 103.126 17.9808C103.126 17.8288 103.205 17.746 103.349 17.746C103.6 17.746 103.713 17.5273 103.713 17.0399C103.713 16.7825 103.774 16.6968 103.978 16.668C104.143 16.6445 104.255 16.5362 104.278 16.3783C104.298 16.2394 104.417 16.0991 104.542 16.0662C104.721 16.0195 104.77 15.9033 104.77 15.5257C104.77 15.2615 104.819 15.0452 104.879 15.0452C105.211 15.0452 105.357 14.6512 105.357 13.7588C105.357 12.9653 105.387 12.8338 105.574 12.7847C106.116 12.6432 106.118 7.99963 105.577 7.99963C105.382 7.99963 105.357 7.9007 105.357 7.1113C105.357 6.17953 105.23 5.76853 104.942 5.76853C104.817 5.76853 104.77 5.62586 104.77 5.24011C104.77 4.79624 104.734 4.7117 104.544 4.7117C104.398 4.7117 104.303 4.61717 104.279 4.44749C104.256 4.27987 104.148 4.16978 103.984 4.14659C103.772 4.11665 103.72 4.02153 103.691 3.61817C103.661 3.2154 103.608 3.1197 103.398 3.08976C103.238 3.06715 103.127 2.95648 103.104 2.79737C103.084 2.65675 102.973 2.52376 102.858 2.50174C102.743 2.47972 102.521 2.33383 102.364 2.17765C102.208 2.02148 101.946 1.89348 101.781 1.89348C101.561 1.89348 101.482 1.83183 101.482 1.65863C101.482 1.45871 101.404 1.42377 100.954 1.42377C100.469 1.42377 100.425 1.39999 100.425 1.13021C100.425 0.845448 100.401 0.836641 99.6173 0.836641C98.9298 0.836641 98.8003 0.804061 98.7522 0.619702C98.6653 0.28768 95.7232 0.0912886 94.4617 0.332892ZM25.6252 7.5995C25.6252 14.2056 25.6305 14.3641 25.8542 14.4225C26.0424 14.4718 26.0973 14.626 26.163 15.2921C26.2294 15.9667 26.2784 16.102 26.4557 16.102C26.6222 16.102 26.6765 16.2106 26.7046 16.6011C26.7346 17.0159 26.7854 17.1066 27.005 17.1377C27.1984 17.165 27.2692 17.2537 27.2692 17.4683C27.2692 17.8332 27.4659 18.2151 27.6549 18.2177C27.7333 18.2189 27.9221 18.351 28.0741 18.5113C28.2262 18.6716 28.4772 18.8028 28.6319 18.8028C28.8535 18.8028 28.9131 18.865 28.9131 19.0964C28.9131 19.3312 28.9718 19.3899 29.2067 19.3899C29.3913 19.3899 29.5003 19.4563 29.5003 19.569C29.5003 19.7968 29.9706 19.9771 30.5647 19.9771C30.819 19.9771 31.0268 20.0299 31.0268 20.0945C31.0268 20.1688 31.8488 20.2119 33.2579 20.2119C34.667 20.2119 35.489 20.1688 35.489 20.0945C35.489 20.0299 35.7664 19.9762 36.1055 19.9753C36.7751 19.9733 36.9339 19.9095 37.0499 19.5954C37.0916 19.4824 37.2331 19.3899 37.364 19.3899C37.5404 19.3899 37.6026 19.313 37.6026 19.0964C37.6026 18.831 37.649 18.8028 38.0832 18.8028C38.4581 18.8028 38.577 18.7532 38.6228 18.5779C38.6551 18.4543 38.8089 18.3211 38.9642 18.282C39.2099 18.2204 39.2466 18.1429 39.2466 17.6849C39.2466 17.202 39.2707 17.1588 39.5402 17.1588C39.7668 17.1588 39.8337 17.0984 39.8337 16.8935C39.8337 16.7476 39.9394 16.5623 40.0686 16.4816C40.2556 16.3647 40.3034 16.2077 40.3034 15.7089C40.3034 15.155 40.3372 15.0675 40.597 14.9492L40.8906 14.8153V0.827835L38.7182 0.895358L38.6877 6.60637C38.658 12.1967 38.6524 12.3188 38.4235 12.3787C38.208 12.4351 38.1898 12.5408 38.1898 13.7426V15.0452H37.8962C37.6696 15.0452 37.6026 15.1057 37.6026 15.3106C37.6026 15.4565 37.497 15.6417 37.3678 15.7224C37.2057 15.8237 37.1329 15.9963 37.1329 16.279C37.1329 16.6381 37.0965 16.6891 36.8394 16.6891C36.6271 16.6891 36.5458 16.7523 36.5458 16.9167C36.5458 17.0966 36.4348 17.1612 36.0174 17.2237C35.6123 17.2845 35.489 17.3532 35.489 17.5182C35.489 17.6914 35.3807 17.7401 34.9312 17.7689C34.4553 17.7994 34.3679 17.8434 34.3359 18.0689C34.2754 18.4946 32.531 18.4702 32.2489 18.0395C32.0921 17.8003 31.9615 17.746 31.5417 17.746C31.1149 17.746 31.0268 17.7081 31.0268 17.5237C31.0268 17.3878 30.9185 17.2745 30.7473 17.2317C30.5935 17.1929 30.44 17.0552 30.4059 16.9252C30.3569 16.7373 30.2462 16.6891 29.8634 16.6891H29.3828V16.1607C29.3828 15.7213 29.3456 15.6323 29.1612 15.6323C28.9892 15.6323 28.9222 15.5158 28.8615 15.1098C28.8057 14.7375 28.7173 14.5664 28.5547 14.5147C28.3316 14.444 28.326 14.2766 28.326 7.63942V0.836641H25.6252V7.5995ZM46.4096 1.76166C46.4096 3.07302 46.2202 3.00198 49.8328 3.04572L52.868 3.08212V11.331C52.868 20.9811 52.6939 19.9988 54.3963 19.9521L55.6275 19.9183L55.6877 3.06774L58.5347 3.05394C60.1003 3.04631 61.5399 3.00608 61.7337 2.96499L62.086 2.88984L62.1538 0.836641H46.4096V1.76166ZM10.8897 2.74481C10.9895 2.97203 11.1087 3.01401 11.7396 3.04396C12.3772 3.07449 12.4735 3.10913 12.4735 3.30816C12.4735 3.50515 12.5566 3.53744 13.0606 3.53744C13.6087 3.53744 13.6478 3.55711 13.6478 3.83101C13.6478 4.04619 13.7103 4.12457 13.8826 4.12457C14.0391 4.12457 14.1175 4.20295 14.1175 4.35942C14.1175 4.53174 14.1959 4.59428 14.411 4.59428C14.6424 4.59428 14.7046 4.65387 14.7046 4.87551C14.7046 5.03022 14.8358 5.28122 14.9961 5.43328C15.1564 5.58535 15.2885 5.82871 15.2897 5.97402C15.2911 6.15926 15.3619 6.23824 15.5266 6.23824C15.7262 6.23824 15.7614 6.31662 15.7614 6.75902C15.7614 7.40662 15.9341 7.88219 16.1695 7.88219C16.3245 7.88219 16.3486 8.22273 16.3486 10.4069C16.3486 12.591 16.3245 12.9315 16.1695 12.9315C15.9417 12.9315 15.7614 13.4018 15.7614 13.996C15.7614 14.3694 15.7192 14.4581 15.5416 14.4581C15.376 14.4581 15.3032 14.5737 15.2465 14.9277C15.2016 15.2096 15.0783 15.4556 14.938 15.5431C14.8097 15.6232 14.7046 15.7817 14.7046 15.8953C14.7046 16.0374 14.613 16.102 14.411 16.102C14.1762 16.102 14.1175 16.1607 14.1175 16.3956C14.1175 16.6108 14.0549 16.6891 13.8826 16.6891C13.7261 16.6891 13.6478 16.7675 13.6478 16.924C13.6478 17.1016 13.5691 17.1591 13.3248 17.1603C12.7718 17.1632 12.4735 17.2907 12.4735 17.5249C12.4735 17.7184 12.3799 17.746 11.7237 17.746C11.0535 17.746 10.9534 17.7771 10.7817 18.0395C10.5433 18.4036 8.59845 18.5054 8.59845 18.154C8.59845 17.9221 8.12552 17.746 7.50346 17.746C7.14237 17.746 6.97299 17.6849 6.86789 17.517C6.78922 17.3911 6.5435 17.254 6.32216 17.2123C6.0647 17.1641 5.89825 17.0558 5.86067 16.9128C5.82662 16.7828 5.6995 16.6891 5.55625 16.6891C5.41387 16.6891 5.31053 16.6134 5.31053 16.5092C5.31053 16.4106 5.21806 16.2946 5.10504 16.252C4.76157 16.1223 4.2537 15.5481 4.2537 15.2891C4.2537 15.1236 4.17826 15.0452 4.01885 15.0452C3.85416 15.0452 3.78341 14.9665 3.78253 14.781C3.7793 14.2898 3.64308 13.9883 3.4235 13.9883C3.24119 13.9883 3.20274 13.8753 3.17309 13.2544C3.14314 12.6236 3.10116 12.5044 2.87395 12.4046C2.61561 12.2912 2.60974 12.246 2.60974 10.3978V8.50691L2.9033 8.37333C3.16927 8.25209 3.19687 8.17283 3.19687 7.53257C3.19687 6.98976 3.23679 6.82537 3.3689 6.82537C3.58232 6.82537 3.78399 6.46516 3.78399 6.08353C3.78399 5.89477 3.86473 5.7747 4.01885 5.73448C4.17385 5.69397 4.2537 5.57419 4.2537 5.3822C4.2537 5.19021 4.33355 5.07044 4.48855 5.02993C4.61772 4.99617 4.7234 4.89019 4.7234 4.79419C4.7234 4.6982 4.85551 4.58664 5.01697 4.54613C5.17843 4.50562 5.31053 4.39993 5.31053 4.31127C5.31053 4.22262 5.44264 4.11694 5.6041 4.07642C5.78523 4.03092 5.89766 3.91937 5.89766 3.78521C5.89766 3.62228 6.01479 3.5486 6.36179 3.49311C6.61719 3.45231 6.86819 3.34721 6.91956 3.25944C6.97211 3.16961 7.29444 3.07331 7.65435 3.03985C8.12347 2.9961 8.34423 2.9142 8.47633 2.73483C8.76109 2.3485 10.7195 2.35672 10.8897 2.74481ZM97.7247 2.70284C97.7247 2.98789 97.9452 3.06774 98.7325 3.06774C99.2903 3.06774 99.3687 3.09651 99.3687 3.30259C99.3687 3.50251 99.4471 3.53744 99.8971 3.53744C100.382 3.53744 100.425 3.56122 100.425 3.83101C100.425 4.06586 100.484 4.12457 100.719 4.12457C100.934 4.12457 101.013 4.1871 101.013 4.35942C101.013 4.51589 101.091 4.59428 101.247 4.59428C101.409 4.59428 101.482 4.67266 101.482 4.84498C101.482 4.98296 101.614 5.21809 101.776 5.36781C101.941 5.52076 102.069 5.77088 102.069 5.93909C102.069 6.17982 102.127 6.23824 102.363 6.23824C102.643 6.23824 102.657 6.26964 102.657 6.94191C102.657 7.51817 102.699 7.67201 102.891 7.79208C103.196 7.9826 103.265 12.9315 102.963 12.9315C102.742 12.9315 102.657 13.1931 102.657 13.8724C102.657 14.3735 102.625 14.4463 102.392 14.4792C102.182 14.5091 102.121 14.6037 102.093 14.9407C102.067 15.2489 101.979 15.4063 101.77 15.5181C101.612 15.6027 101.482 15.7688 101.482 15.8871C101.482 16.0236 101.397 16.102 101.247 16.102C101.075 16.102 101.013 16.1804 101.013 16.3956C101.013 16.6304 100.954 16.6891 100.719 16.6891C100.504 16.6891 100.425 16.7517 100.425 16.924C100.425 17.1051 100.347 17.1588 100.083 17.1588C99.5874 17.1588 99.3687 17.2707 99.3687 17.5237C99.3687 17.7207 99.275 17.746 98.5467 17.746C98.0406 17.746 97.7247 17.7944 97.7247 17.8719C97.7247 18.3669 95.5914 18.5914 95.4393 18.1123C95.3659 17.8807 94.9285 17.746 94.2501 17.746C93.9862 17.746 93.8191 17.6738 93.7396 17.5249C93.6744 17.4031 93.4378 17.2692 93.2135 17.2272C92.9546 17.1785 92.7793 17.0667 92.7329 16.9199C92.6924 16.7931 92.5809 16.6891 92.4849 16.6891C92.2474 16.6891 91.1882 15.6314 91.1324 15.3387C91.1066 15.2031 90.9765 15.088 90.8248 15.0663C90.6022 15.0346 90.5617 14.9562 90.5617 14.5564C90.5617 14.1827 90.5127 14.0708 90.3269 14.0224C90.1525 13.9769 90.092 13.8621 90.092 13.5782C90.092 12.8969 89.9496 12.4333 89.7218 12.3737C89.3848 12.2857 89.3886 8.52217 89.7256 8.41502C89.9561 8.34192 90.092 7.90451 90.092 7.23547C90.092 6.95159 90.1525 6.83682 90.3269 6.79132C90.5127 6.74288 90.5617 6.63103 90.5617 6.25732C90.5617 5.8569 90.602 5.77911 90.8259 5.7474C90.9968 5.72303 91.1036 5.6153 91.128 5.44239C91.1665 5.17113 91.6591 4.59428 91.8522 4.59428C91.9101 4.59428 92.0266 4.49828 92.1109 4.38114C92.1954 4.26372 92.3619 4.13133 92.4811 4.087C92.6002 4.04237 92.7235 3.90645 92.7555 3.78521C92.7949 3.6349 92.9601 3.54067 93.2728 3.49076C93.5684 3.4435 93.7322 3.35484 93.7322 3.24241C93.7322 3.11383 93.8705 3.06774 94.2551 3.06774C94.8545 3.06774 95.3762 2.86782 95.3762 2.63796C95.3762 2.51701 95.6474 2.48061 96.5505 2.48061C97.6243 2.48061 97.7247 2.49969 97.7247 2.70284Z" fill="black"/>
</svg>
